<svg version="1.1" id="Layer_1" xmlns="http://www.w3.org/2000/svg" xmlns:xlink="http://www.w3.org/1999/xlink" x="0px" y="0px"
	 width="100%" viewBox="0 0 2685 1141" enable-background="new 0 0 2685 1141" xml:space="preserve">
<path fill="#FFFFFF" opacity="1.000000" stroke="none" 
	d="
M2028.000000,1142.000000 
	C1352.000000,1142.000000 676.500000,1142.000000 1.000000,1142.000000 
	C1.000000,761.666687 1.000000,381.333344 1.000000,1.000000 
	C896.000000,1.000000 1791.000000,1.000000 2686.000000,1.000000 
	C2686.000000,381.333344 2686.000000,761.666687 2686.000000,1142.000000 
	C2466.833252,1142.000000 2247.666748,1142.000000 2028.000000,1142.000000 
M2309.183350,516.783203 
	C2309.204834,517.097473 2309.226318,517.411743 2309.247803,517.726013 
	C2309.441406,517.370239 2309.635010,517.014404 2309.188232,516.733521 
	C2308.730225,516.286743 2308.271973,515.839905 2307.457764,514.812134 
	C2297.691406,507.110138 2288.708496,498.021210 2278.006104,491.976776 
	C2250.373779,476.370819 2222.020020,462.036255 2193.885010,447.326935 
	C2136.258301,417.199127 2077.115234,390.385956 2016.405640,367.098297 
	C1945.327148,339.833313 1872.758057,317.302338 1798.754517,299.389069 
	C1752.203735,288.121002 1705.291626,278.639954 1657.996216,271.164154 
	C1632.864380,267.191681 1607.620483,263.833771 1582.348755,260.867523 
	C1556.559570,257.840576 1530.713013,255.104034 1504.820679,253.207306 
	C1475.584717,251.065689 1446.279053,249.776535 1416.985229,248.567505 
	C1403.094360,247.994186 1389.160156,248.469070 1375.255615,248.469070 
	C1375.255615,367.030884 1375.255615,485.804047 1375.255615,605.189209 
	C1378.253296,590.234985 1380.854126,575.868774 1384.040527,561.633545 
	C1392.529663,523.709473 1404.444214,486.977966 1422.931152,452.602234 
	C1451.121704,400.182983 1492.104736,362.053375 1547.971069,340.500305 
	C1586.957153,325.459473 1627.656616,319.757721 1669.116333,318.425659 
	C1719.765869,316.798431 1769.894409,322.336395 1819.768677,330.374420 
	C1875.934814,339.426453 1931.207275,352.371918 1985.668457,368.933594 
	C2078.581055,397.188507 2167.070801,435.617096 2251.497070,483.480865 
	C2270.134766,494.046997 2288.408691,505.254700 2307.412354,516.867004 
	C2308.238281,516.808533 2309.063965,516.750061 2309.183350,516.783203 
M1715.106445,230.778625 
	C1715.920410,231.171356 1716.734497,231.564072 1717.548462,231.956802 
	C1717.698120,231.680115 1717.847900,231.403427 1717.997559,231.126755 
	C1717.248901,230.545013 1716.500244,229.963272 1715.319092,228.869034 
	C1676.764526,196.619934 1634.040894,171.229538 1587.877197,151.530106 
	C1525.834106,125.054497 1461.009644,109.881233 1393.826782,105.241745 
	C1356.750244,102.681335 1319.605591,102.998840 1282.538086,106.845795 
	C1248.049316,110.425148 1214.079224,116.637779 1180.732788,126.067848 
	C1094.051758,150.580353 1017.234009,192.353714 953.375977,256.641113 
	C949.738892,260.302673 946.175842,264.042572 942.689514,267.847900 
	C939.223022,271.631653 935.896912,275.543976 933.215088,278.596497 
	C954.097351,273.931824 975.453308,269.240234 996.751282,264.298828 
	C999.270508,263.714355 1001.974426,262.238770 1003.746887,260.372772 
	C1037.918579,224.398224 1077.396362,195.667633 1121.758545,173.581879 
	C1182.709839,143.237259 1247.555420,127.314690 1315.171265,122.280396 
	C1384.112061,117.147453 1452.173218,123.316063 1519.214355,140.169144 
	C1576.109863,154.471802 1630.197632,175.713638 1680.137329,206.807571 
	C1691.966309,214.172592 1703.280884,222.363800 1715.106445,230.778625 
M402.090088,516.423279 
	C442.006714,491.526642 482.941711,468.461151 525.113159,447.582489 
	C574.893677,422.936646 626.019775,401.535736 678.526672,383.429535 
	C748.590942,359.268951 820.181213,341.235535 893.427551,329.788025 
	C944.848328,321.751617 996.420593,316.365906 1048.593140,318.851013 
	C1085.836792,320.625000 1122.342896,326.187805 1157.443848,339.144623 
	C1203.734131,356.231781 1241.183960,384.865112 1269.368286,425.515564 
	C1294.639893,461.965179 1310.183350,502.621368 1320.901245,545.265564 
	C1325.906128,565.178711 1329.721558,585.390747 1333.707275,603.767456 
	C1333.707275,486.308289 1333.707275,367.067291 1333.707275,247.419724 
	C1310.735596,248.093063 1288.091553,248.495255 1265.472290,249.472473 
	C1213.045044,251.737503 1160.698853,255.471405 1108.769897,263.092163 
	C1063.384399,269.752686 1018.033752,276.931671 972.987488,285.552612 
	C915.690186,296.518097 859.334473,311.535858 803.575989,328.787231 
	C744.698059,347.003662 686.627686,367.496918 630.414917,392.728882 
	C586.340271,412.512451 542.892822,433.746826 499.637238,455.281647 
	C473.364594,468.361481 447.749634,482.829224 422.345001,497.546478 
	C414.331177,502.188965 407.956268,509.660645 400.274719,516.091736 
	C400.253998,516.385498 400.233276,516.679260 400.212585,516.973083 
	C400.629578,516.901917 401.046570,516.830750 402.090088,516.423279 
M991.198669,815.188049 
	C975.629395,773.542480 960.060120,731.896973 944.508850,690.299561 
	C931.183228,690.299561 918.084656,690.299561 904.830994,690.299561 
	C904.693604,691.358276 904.497925,692.162476 904.498047,692.966736 
	C904.502380,735.452209 904.629395,777.938110 904.469666,820.422913 
	C904.428406,831.391968 903.752258,842.378235 902.886902,853.318665 
	C902.154602,862.576294 897.504639,866.913208 888.263977,868.069458 
	C885.677429,868.393127 883.086121,868.678650 880.463379,868.985535 
	C880.463379,873.140320 880.463379,876.742371 880.463379,880.573730 
	C901.457153,880.573730 922.202576,880.573730 943.224792,880.573730 
	C943.224792,876.719177 943.224792,872.974060 943.224792,868.957886 
	C940.435974,868.637146 937.816101,868.367004 935.204956,868.029785 
	C927.001892,866.970642 921.545349,862.822876 920.167786,856.336548 
	C919.548584,853.420959 919.084106,850.408569 919.070984,847.437805 
	C918.868347,801.451050 918.749329,755.464050 918.631653,709.476990 
	C918.629578,708.668335 918.882324,707.858948 919.227600,705.771667 
	C920.136169,707.919373 920.534729,708.779724 920.869385,709.664185 
	C941.594971,764.454834 962.318542,819.246277 983.032349,874.041382 
	C985.661316,880.995911 985.636597,881.005249 994.083862,880.617798 
	C1015.150330,822.331848 1036.277954,763.876709 1057.405518,705.421570 
	C1058.480713,707.001648 1058.645996,708.313599 1058.645630,709.625549 
	C1058.630737,756.449829 1058.605591,803.274170 1058.558838,850.098450 
	C1058.556274,852.757751 1058.513794,855.433838 1058.224243,858.072937 
	C1057.500366,864.671143 1055.107910,867.298218 1048.602539,868.161926 
	C1044.193970,868.747314 1039.715332,868.804443 1035.409912,869.088501 
	C1035.409912,873.080261 1035.409912,876.828308 1035.409912,880.561829 
	C1061.512573,880.561829 1087.263062,880.561829 1113.142822,880.561829 
	C1113.142822,876.578369 1113.142822,872.840881 1113.142822,868.744141 
	C1110.518799,868.744141 1108.219238,868.784058 1105.921509,868.737671 
	C1092.180908,868.460144 1089.241211,865.525024 1089.233032,851.840454 
	C1089.202515,800.683167 1089.205566,749.525818 1089.196289,698.368530 
	C1089.195801,695.746338 1089.196289,693.124146 1089.196289,690.042297 
	C1076.414062,690.042297 1064.127319,689.950928 1051.846802,690.188660 
	C1050.664307,690.211548 1048.935913,692.068115 1048.445679,693.428406 
	C1035.837769,728.414978 1023.367798,763.451294 1010.857178,798.473022 
	C1006.784790,809.873169 1002.665649,821.256653 998.198669,833.674011 
	C995.692139,827.033203 993.592896,821.471558 991.198669,815.188049 
M1491.047974,730.385498 
	C1489.813599,719.551636 1484.596680,710.968445 1476.162476,704.253479 
	C1462.737305,693.564941 1446.883423,690.376160 1430.323242,690.159485 
	C1407.337036,689.858765 1384.344116,690.072388 1361.354004,690.065979 
	C1358.745117,690.065308 1356.136108,690.065918 1353.141357,690.065918 
	C1353.141357,692.065308 1353.141113,693.527893 1353.141479,694.990417 
	C1353.154541,742.303223 1353.171631,789.615967 1353.176025,836.928772 
	C1353.176636,843.591248 1353.264648,850.258850 1353.041016,856.914917 
	C1352.794434,864.265930 1350.168579,867.178589 1342.993408,868.108032 
	C1338.600464,868.677063 1334.149048,868.794678 1330.024902,869.093201 
	C1330.024902,873.144165 1330.024902,876.887573 1330.024902,880.485901 
	C1363.906128,880.485901 1397.381958,880.672119 1430.854004,880.395752 
	C1444.541748,880.282776 1458.017578,878.096436 1470.890625,873.050415 
	C1490.567505,865.337463 1501.281494,850.176086 1501.562134,829.580322 
	C1501.815918,810.952209 1491.832031,796.519348 1472.114014,788.824890 
	C1463.039062,785.283569 1453.316650,783.401245 1444.504272,780.938904 
	C1456.422485,779.170898 1468.603271,775.641479 1478.374512,766.503906 
	C1488.629028,756.914307 1492.229980,744.933533 1491.047974,730.385498 
M1836.519287,866.914246 
	C1842.595337,879.475769 1852.503296,885.895081 1866.539062,884.785767 
	C1878.081421,883.873535 1887.771118,879.395691 1893.127563,868.279175 
	C1894.238770,865.973328 1895.291626,863.525146 1891.479980,862.392639 
	C1890.989624,862.825684 1890.508301,863.279541 1889.997681,863.697449 
	C1881.091919,870.985229 1872.792969,869.293579 1867.819092,859.111145 
	C1866.730347,856.882080 1865.718628,854.572876 1865.034058,852.196228 
	C1861.818237,841.034912 1858.872681,829.794495 1855.562256,818.662170 
	C1850.134277,800.408752 1838.202271,789.214722 1819.231934,785.872375 
	C1818.440430,785.732910 1817.719238,785.194763 1815.893433,784.341492 
	C1818.277344,784.183350 1819.409302,784.139038 1820.534790,784.028809 
	C1835.808716,782.533813 1850.252197,778.768127 1862.758667,769.250427 
	C1881.637817,754.882996 1883.966553,726.663513 1867.189209,709.875793 
	C1854.394653,697.073303 1837.882202,691.945190 1820.501343,691.193054 
	C1793.724365,690.034302 1766.883423,690.347656 1740.069458,690.066956 
	C1739.474243,690.060730 1738.875000,690.421631 1738.116699,690.662354 
	C1738.116699,707.972900 1738.116943,725.120300 1738.116699,742.267639 
	C1738.115967,779.421082 1738.126099,816.574524 1738.107300,853.727966 
	C1738.101685,864.821472 1735.754150,867.452881 1724.647827,868.518372 
	C1721.411133,868.828857 1718.119141,868.566101 1714.847900,868.566101 
	C1714.847900,873.141785 1714.847900,876.885803 1714.847900,880.477661 
	C1740.748169,880.477661 1766.312256,880.477661 1791.929932,880.477661 
	C1791.929932,876.469788 1791.929932,872.826111 1791.929932,868.723389 
	C1788.991211,868.723389 1786.188477,868.832764 1783.396606,868.704346 
	C1771.692139,868.166260 1768.817627,865.176025 1768.795898,853.415039 
	C1768.758301,833.088989 1768.780151,812.762878 1768.794678,792.436768 
	C1768.795776,790.866760 1768.935669,789.296814 1768.999146,787.973999 
	C1777.310425,787.973999 1784.983887,787.669312 1792.625122,788.036743 
	C1809.074829,788.827881 1820.009644,796.822754 1824.652466,811.854858 
	C1826.744995,818.630493 1827.928223,825.740051 1828.950073,832.781372 
	C1830.594971,844.117371 1831.295044,855.622375 1836.519287,866.914246 
M2475.035400,736.466431 
	C2458.672119,775.511780 2442.245361,814.530884 2425.993896,853.622803 
	C2422.382812,862.309143 2417.510742,869.044434 2407.187988,869.080811 
	C2407.187988,873.183105 2407.187988,876.785095 2407.187988,880.590698 
	C2416.040039,880.590698 2424.647949,880.590698 2433.477295,880.590698 
	C2433.947998,879.419067 2434.473389,878.227417 2434.911133,877.004395 
	C2441.287598,859.196777 2447.732910,841.412964 2453.944336,823.547852 
	C2455.054932,820.353821 2456.524414,819.268127 2459.960449,819.302612 
	C2478.783691,819.491333 2497.609863,819.394470 2516.435059,819.391663 
	C2529.622314,819.389709 2529.549072,819.415100 2534.304932,831.702698 
	C2540.640869,848.072021 2547.104492,864.391663 2553.503174,880.706360 
	C2567.154541,880.706360 2580.467529,880.706360 2594.076660,880.706360 
	C2594.076660,876.837219 2594.076660,873.069092 2594.076660,868.688477 
	C2583.877197,870.852173 2580.256592,864.183655 2576.955322,856.484863 
	C2554.446777,803.988159 2531.782959,751.558167 2509.198975,699.093750 
	C2505.235840,689.886719 2505.300781,689.856445 2495.400879,690.102112 
	C2495.080566,690.109985 2494.763916,690.273254 2494.297607,690.406250 
	C2487.978271,705.459290 2481.622559,720.598450 2475.035400,736.466431 
M663.020264,690.075806 
	C659.069763,690.075806 655.119263,690.075806 650.831238,690.075806 
	C650.831238,691.679321 650.831482,692.808044 650.831177,693.936707 
	C650.819946,734.259460 650.875244,774.582336 650.773438,814.904846 
	C650.708618,840.574463 636.943726,859.248657 613.175537,865.547668 
	C597.932068,869.587463 582.729919,868.306335 568.170776,862.469727 
	C555.859253,857.534180 546.554871,849.063293 543.634338,835.603699 
	C542.060913,828.352234 541.422668,820.772949 541.378418,813.335449 
	C541.149841,774.846680 541.249329,736.355957 541.234619,697.865906 
	C541.233704,695.393311 541.234497,692.920715 541.234497,690.382202 
	C523.269653,690.382202 505.721680,690.382202 488.223755,690.382202 
	C488.223755,694.329346 488.223755,697.928528 488.223755,701.919434 
	C490.796173,701.919434 493.091125,701.898743 495.385620,701.922913 
	C508.569519,702.061523 511.247894,704.689087 511.255554,717.699402 
	C511.276306,753.023682 511.427734,788.348938 511.201263,823.671814 
	C511.055908,846.340271 521.524536,861.966064 541.675659,871.406860 
	C562.418945,881.124939 584.354736,882.128479 606.647095,879.423096 
	C619.721130,877.836365 631.972046,873.796997 642.257446,865.212646 
	C657.539001,852.458435 663.592712,835.176575 663.913696,816.121704 
	C664.578796,776.644226 664.348755,737.151550 664.444885,697.665039 
	C664.450867,695.204163 664.094482,692.742432 663.020264,690.075806 
M121.393196,749.905701 
	C116.752258,762.004700 114.772423,774.601196 114.582069,787.491821 
	C114.337982,804.020996 116.550446,820.192322 124.901184,834.706177 
	C142.428696,865.169495 168.910416,880.886597 204.222870,881.302673 
	C221.435623,881.505432 237.439392,877.465149 251.935257,867.790222 
	C248.862946,864.653442 245.985489,861.715576 242.972809,858.639648 
	C240.965134,859.804810 239.122437,860.882202 237.272446,861.946838 
	C205.034714,880.498535 162.813965,865.340149 153.852356,827.143738 
	C149.663849,809.291382 148.475204,791.344177 149.687897,773.125977 
	C150.758804,757.037598 153.878342,741.569519 161.649887,727.191284 
	C174.836777,702.794067 200.296234,696.098877 223.038223,702.927124 
	C238.919586,707.695435 249.225540,719.100769 256.344971,733.324890 
	C261.356079,743.336853 265.060974,754.002625 269.455353,764.633545 
	C272.174835,764.633545 275.585327,764.633545 278.951477,764.633545 
	C278.951477,740.049377 278.951477,715.787720 278.951477,691.276123 
	C274.935577,691.276123 271.174530,691.276123 267.988129,691.276123 
	C266.462799,695.560486 265.471771,699.790100 263.511810,703.508972 
	C260.604858,709.024658 257.551331,709.410645 252.820038,705.261597 
	C234.493088,689.190613 212.929825,685.912964 190.106461,690.763794 
	C157.004776,697.799255 134.940659,718.518066 121.393196,749.905701 
M2136.251953,837.499878 
	C2136.192627,844.325562 2136.341553,851.161255 2136.012939,857.973999 
	C2135.710205,864.254272 2132.690918,867.325500 2126.505371,868.063477 
	C2122.094727,868.589783 2117.642334,868.767456 2112.984375,869.117554 
	C2112.984375,872.958435 2112.984375,876.722290 2112.984375,880.622681 
	C2138.800049,880.622681 2164.382080,880.622681 2190.291504,880.622681 
	C2190.291504,876.705139 2190.291504,872.972412 2190.291504,868.776428 
	C2187.789307,868.776428 2185.493164,868.843201 2183.201904,868.765442 
	C2169.605713,868.304016 2166.907959,865.543701 2166.908203,852.100464 
	C2166.909668,799.474731 2166.921631,746.849060 2166.911865,694.223328 
	C2166.911621,692.952332 2166.705078,691.681335 2166.591064,690.368103 
	C2156.367920,690.368103 2146.477783,690.368103 2136.252197,690.368103 
	C2136.252197,739.311829 2136.252197,787.905823 2136.251953,837.499878 
M2011.781494,1106.177002 
	C2011.781494,1091.408569 2011.781494,1076.640015 2011.781494,1061.242065 
	C2019.583008,1078.251221 2027.141724,1094.731201 2035.371338,1112.673950 
	C2043.471924,1095.023682 2050.909668,1078.817749 2058.347412,1062.611694 
	C2058.774902,1062.718384 2059.202393,1062.825073 2059.629883,1062.931763 
	C2059.629883,1074.849487 2059.759766,1086.769409 2059.572266,1098.684204 
	C2059.485107,1104.223633 2060.397949,1110.813232 2051.634277,1111.020874 
	C2055.795166,1111.020874 2059.956299,1111.020874 2064.117188,1111.020874 
	C2068.229248,1111.020874 2072.341553,1111.020874 2076.453613,1111.020874 
	C2069.305908,1109.360229 2068.335693,1108.252319 2068.309082,1100.788208 
	C2068.263428,1087.960083 2068.204834,1075.131226 2068.288086,1062.303589 
	C2068.305908,1059.517090 2068.086670,1056.203369 2069.459961,1054.101562 
	C2070.788086,1052.068848 2074.028564,1051.285767 2076.144043,1050.111938 
	C2070.905762,1050.111938 2065.258789,1050.111938 2059.499756,1050.111938 
	C2055.953369,1057.876709 2052.442383,1065.561890 2048.932861,1073.247925 
	C2045.383057,1081.022339 2041.834717,1088.797485 2037.958618,1097.288940 
	C2036.689575,1094.711792 2035.802612,1093.003418 2034.996338,1091.257812 
	C2029.148438,1078.598633 2023.370117,1065.906616 2017.403076,1053.304077 
	C2016.756836,1051.939087 2015.111450,1050.232422 2013.818604,1050.133545 
	C2008.931396,1049.759521 2003.998535,1049.983154 1997.854614,1049.983154 
	C2006.363647,1052.552124 2007.036255,1053.475342 2007.038574,1061.548340 
	C2007.042358,1074.210449 2007.078613,1086.873169 2006.962769,1099.534302 
	C2006.938965,1102.135376 2007.074707,1105.268188 2005.738647,1107.177612 
	C2004.400757,1109.089966 2001.312744,1109.777832 1999.516968,1110.725342 
	C2005.629761,1110.725342 2012.395386,1110.725342 2018.225464,1110.725342 
	C2016.505249,1109.688721 2014.267700,1108.340332 2011.781494,1106.177002 
M1420.059692,1108.821167 
	C1409.165894,1102.237183 1405.183716,1090.247803 1397.129517,1081.007935 
	C1399.719116,1080.003540 1401.432129,1079.447754 1403.051636,1078.691772 
	C1409.617188,1075.627319 1412.724731,1070.322266 1412.014526,1063.536621 
	C1411.416992,1057.825562 1406.383545,1051.596069 1400.013306,1051.209106 
	C1388.454590,1050.507080 1376.822754,1051.010010 1367.925659,1051.010010 
	C1372.141479,1051.671509 1373.050903,1052.548706 1373.128296,1059.869141 
	C1373.268799,1073.191895 1373.305298,1086.517822 1373.183960,1099.840454 
	C1373.105957,1108.416382 1372.725464,1108.709473 1364.716797,1110.803955 
	C1373.434814,1110.803955 1381.732666,1110.803955 1390.030518,1110.803955 
	C1385.906738,1110.279419 1382.307983,1109.039429 1382.146484,1104.217041 
	C1381.902222,1096.928101 1382.082642,1089.624634 1382.082642,1082.458984 
	C1386.187378,1081.109985 1388.538330,1082.637329 1390.658691,1085.757324 
	C1395.706055,1093.184082 1401.014038,1100.435303 1406.309204,1107.689941 
	C1407.239380,1108.964233 1408.555176,1110.764893 1409.802002,1110.857910 
	C1414.721436,1111.224976 1419.684448,1111.008545 1424.631226,1111.008545 
	C1424.623413,1110.713745 1424.615601,1110.419067 1424.607788,1110.124268 
	C1423.339233,1109.759521 1422.070679,1109.394653 1420.059692,1108.821167 
M2228.242920,1083.499756 
	C2228.233154,1088.995483 2228.323730,1094.493774 2228.190674,1099.986450 
	C2227.982666,1108.590942 2227.736816,1108.825439 2219.174561,1110.847656 
	C2228.333496,1110.847656 2236.656250,1110.847656 2244.979004,1110.847656 
	C2240.685303,1110.233154 2237.149414,1108.869751 2237.086670,1103.742432 
	C2236.999512,1096.610596 2237.064941,1089.476807 2237.064941,1082.467529 
	C2241.391846,1080.983032 2243.678467,1082.841675 2245.878662,1086.092285 
	C2251.001221,1093.661011 2256.462891,1101.001953 2261.884277,1108.363892 
	C2262.685303,1109.451782 2263.972168,1110.844482 2265.104004,1110.911011 
	C2269.922607,1111.193970 2274.767090,1111.031372 2279.602295,1111.031372 
	C2264.523682,1106.073364 2261.663818,1090.733032 2251.637695,1080.986938 
	C2253.334717,1080.413452 2253.928223,1080.211304 2254.522949,1080.012085 
	C2263.685059,1076.944214 2267.710938,1071.728394 2267.005371,1063.839722 
	C2266.380127,1056.849731 2260.619385,1051.108154 2251.905762,1050.572998 
	C2241.462646,1049.931641 2230.950195,1050.421387 2220.082520,1050.421387 
	C2227.162109,1051.776123 2227.987793,1052.703247 2228.116943,1060.017090 
	C2228.249512,1067.509766 2228.208252,1075.005371 2228.242920,1083.499756 
M82.119629,1095.462158 
	C82.164948,1108.577637 82.164948,1108.577637 72.806274,1111.008911 
	C81.226540,1111.008911 88.514931,1111.008911 95.803322,1111.008911 
	C96.893387,1111.008911 97.983459,1111.008911 100.422318,1111.008911 
	C91.291870,1108.674438 90.984192,1108.280762 90.974594,1099.921875 
	C90.960060,1087.258057 90.906616,1074.593994 91.001144,1061.930908 
	C91.021812,1059.162476 90.808968,1055.900146 92.150246,1053.780884 
	C93.343201,1051.895996 96.540955,1051.280029 98.471619,1050.298340 
	C90.641869,1050.298340 82.381332,1050.298340 75.787819,1050.298340 
	C77.367279,1051.750854 81.357155,1053.658325 81.619598,1055.986084 
	C82.464310,1063.478394 81.934113,1071.125732 81.934113,1078.714600 
	C72.452469,1078.714600 63.371655,1078.714600 54.363861,1078.714600 
	C54.188736,1078.149780 54.014874,1077.848389 54.013523,1077.546265 
	C53.989651,1072.215210 53.882854,1066.881226 54.023838,1061.554199 
	C54.092987,1058.941162 53.854244,1055.808472 55.173813,1053.883667 
	C56.498901,1051.950806 59.587685,1051.226929 61.427025,1050.231201 
	C53.720894,1050.231201 45.393291,1050.231201 35.592594,1050.231201 
	C44.423862,1051.868652 45.100319,1052.707764 45.104595,1060.658203 
	C45.111584,1073.655151 45.154465,1086.652588 45.052395,1099.648804 
	C45.031956,1102.251831 45.204762,1105.388672 43.876888,1107.297485 
	C42.584469,1109.155151 39.481258,1109.753174 37.518654,1110.731934 
	C45.407997,1110.731934 53.699112,1110.731934 61.990223,1110.731934 
	C58.274426,1109.904541 54.329586,1109.240356 54.130974,1104.561890 
	C53.816433,1097.152466 54.047150,1089.719849 54.047150,1082.290894 
	C63.671734,1082.290894 72.754089,1082.290894 82.119415,1082.290894 
	C82.119415,1086.536377 82.119415,1090.507324 82.119629,1095.462158 
M182.543594,1103.962158 
	C191.955093,1112.604736 202.847137,1114.515747 214.396606,1109.663696 
	C226.218338,1104.697510 232.261215,1095.003540 232.901749,1082.317383 
	C233.812637,1064.276489 221.297714,1049.506714 205.097839,1048.976440 
	C192.102371,1048.551025 181.074905,1055.258301 175.823303,1066.781860 
	C170.398407,1078.685669 172.936050,1093.647339 182.543594,1103.962158 
M1536.483276,1110.074951 
	C1547.632324,1105.519531 1553.953125,1097.093628 1555.615479,1085.337036 
	C1557.350464,1073.067139 1553.763672,1062.598877 1543.750732,1054.839966 
	C1534.938599,1048.011597 1525.077393,1047.096313 1515.025635,1051.202271 
	C1499.065186,1057.722046 1492.021118,1075.395508 1498.080444,1092.530273 
	C1503.543213,1107.978149 1518.510254,1115.080322 1536.483276,1110.074951 
M1159.374390,1063.562256 
	C1159.374390,1073.764282 1159.374390,1083.966187 1159.374390,1094.168213 
	C1147.351440,1081.243164 1136.446045,1068.106323 1125.517578,1054.988525 
	C1121.153442,1049.750366 1112.619995,1048.058350 1105.468262,1051.280884 
	C1107.611938,1051.966064 1109.524414,1052.306641 1111.171509,1053.159546 
	C1114.787476,1055.031860 1117.929321,1057.276855 1117.886597,1062.113525 
	C1117.776245,1074.608154 1117.960205,1087.105713 1117.802002,1099.599365 
	C1117.690796,1108.382690 1117.301758,1108.675903 1109.274292,1110.701172 
	C1116.257446,1110.701172 1123.083374,1110.701172 1129.909180,1110.701172 
	C1126.109253,1110.039062 1122.170654,1109.449707 1122.095459,1104.622803 
	C1121.891479,1091.542603 1122.025513,1078.457275 1122.025513,1064.315308 
	C1135.892700,1080.885010 1149.115967,1096.685303 1162.339233,1112.485474 
	C1162.763794,1112.177856 1163.188232,1111.870239 1163.612671,1111.562744 
	C1163.612671,1094.768555 1163.561646,1077.973999 1163.666016,1061.180542 
	C1163.682251,1058.578979 1163.684570,1055.484497 1165.023682,1053.529175 
	C1166.244629,1051.746460 1169.272339,1051.201172 1171.063477,1050.325562 
	C1164.913696,1050.325562 1158.244141,1050.325562 1151.574585,1050.325562 
	C1158.097778,1051.608154 1159.115723,1052.698730 1159.356323,1059.087280 
	C1159.400269,1060.251953 1159.368530,1061.419678 1159.374390,1063.562256 
M473.269287,1061.241089 
	C473.809326,1061.816650 474.349335,1062.392212 475.581940,1063.705811 
	C475.321228,1058.521240 475.116302,1054.445312 474.901611,1050.175903 
	C459.256989,1050.175903 443.862915,1050.175903 428.050537,1050.175903 
	C436.406708,1052.390625 436.554474,1052.562378 436.560059,1061.480103 
	C436.567902,1073.978394 436.595123,1086.477417 436.476746,1098.974609 
	C436.450439,1101.751953 436.632904,1105.016846 435.285126,1107.151855 
	C434.073181,1109.071899 430.892487,1109.749146 428.918549,1110.795166 
	C443.953064,1110.795166 459.394653,1110.795166 475.020538,1110.795166 
	C476.736176,1105.504883 478.396606,1100.384766 480.057068,1095.264771 
	C479.672943,1095.068481 479.288788,1094.872314 478.904663,1094.676025 
	C477.995575,1096.083008 477.014160,1097.449097 476.190582,1098.904541 
	C473.458191,1103.733398 470.071472,1107.740356 464.006409,1107.946777 
	C459.179108,1108.111084 454.310486,1108.291382 449.527222,1107.805298 
	C448.001770,1107.650146 445.544708,1105.441040 445.472656,1104.068970 
	C445.074677,1096.491333 445.282257,1088.881836 445.282257,1081.009644 
	C449.071381,1081.009644 452.390778,1081.016602 455.710144,1081.008301 
	C465.305023,1080.984619 466.503296,1081.545898 468.506500,1089.683716 
	C468.531555,1089.785522 469.092468,1089.755615 469.507721,1089.797729 
	C469.507721,1082.872070 469.507721,1075.985474 469.507721,1069.098999 
	C468.377899,1069.781372 468.015228,1070.576904 467.891174,1071.408081 
	C467.248413,1075.715576 464.594543,1077.823486 460.434723,1077.949463 
	C455.456665,1078.100220 450.470581,1077.984985 445.424072,1077.984985 
	C445.424072,1069.536377 445.424072,1061.433594 445.424072,1053.011963 
	C451.448761,1053.011963 457.267487,1053.087402 463.083344,1052.989868 
	C468.426147,1052.900269 472.120300,1054.825806 473.269287,1061.241089 
M2344.243164,1100.418335 
	C2344.243164,1094.020386 2344.243164,1087.622437 2344.243164,1081.008911 
	C2347.511230,1081.008911 2350.165283,1081.008911 2352.819336,1081.008911 
	C2363.734131,1081.008911 2363.734131,1081.008911 2368.464355,1091.024414 
	C2368.464355,1083.001953 2368.464355,1076.076172 2368.464355,1069.150513 
	C2366.539307,1073.295776 2365.520996,1077.864990 2359.806152,1077.962646 
	C2354.690186,1078.050171 2349.571533,1077.981079 2344.448975,1077.981079 
	C2344.448975,1069.428833 2344.448975,1061.354370 2344.448975,1053.011108 
	C2350.727539,1053.011108 2356.710693,1053.051270 2362.693115,1052.998657 
	C2367.655762,1052.955078 2370.934326,1054.988892 2372.059814,1060.047607 
	C2372.294922,1061.104492 2372.938965,1062.070557 2373.394775,1063.078491 
	C2373.760010,1062.951660 2374.125244,1062.824829 2374.490479,1062.697998 
	C2374.282227,1058.531860 2374.073975,1054.365723 2373.855225,1049.988525 
	C2365.799561,1049.988525 2358.157959,1049.988525 2350.516602,1049.988525 
	C2342.862793,1049.988525 2335.208984,1049.988525 2327.555420,1049.988525 
	C2334.843018,1051.772461 2335.478271,1052.454224 2335.509766,1060.204834 
	C2335.562988,1073.192139 2335.565186,1086.180542 2335.455322,1099.167358 
	C2335.431885,1101.948486 2335.634277,1105.239624 2334.269287,1107.348755 
	C2333.064697,1109.209839 2329.818115,1109.749268 2327.468750,1110.860229 
	C2342.914551,1110.860229 2358.360596,1110.860229 2374.018311,1110.860229 
	C2375.693848,1105.619629 2377.340576,1100.469727 2379.319336,1094.280518 
	C2377.709229,1095.179810 2377.078125,1095.309692 2376.954590,1095.633423 
	C2372.903076,1106.233887 2364.866943,1109.444458 2354.255859,1108.008911 
	C2353.111084,1107.854126 2351.910400,1107.856445 2350.764648,1108.006348 
	C2345.630615,1108.678711 2343.690918,1106.284424 2344.243164,1100.418335 
M1017.730896,1081.139160 
	C1023.087280,1081.567383 1023.310974,1086.480103 1025.310303,1089.811890 
	C1025.310303,1082.926880 1025.310303,1076.041992 1025.310303,1069.156982 
	C1023.779846,1073.343994 1022.699890,1077.557007 1017.491699,1077.849731 
	C1012.092834,1078.153198 1006.663696,1077.917236 1001.280640,1077.917236 
	C1001.280640,1069.350708 1001.280640,1061.366699 1001.280640,1053.013184 
	C1006.184082,1053.013184 1010.997009,1053.011230 1015.809937,1053.013428 
	C1025.866577,1053.018311 1025.859497,1053.022217 1029.642944,1062.128540 
	C1029.792847,1062.489014 1030.327515,1062.689575 1031.119873,1063.303101 
	C1031.119873,1058.701172 1031.119873,1054.552734 1031.119873,1049.989868 
	C1022.930298,1049.989868 1015.134949,1049.989746 1007.339661,1049.989746 
	C999.767456,1049.989746 992.195251,1049.989868 984.622986,1049.989868 
	C991.624634,1051.637695 992.491150,1052.499390 992.540222,1059.911621 
	C992.627319,1073.070679 992.572388,1086.231079 992.519897,1099.390747 
	C992.484131,1108.360596 992.345825,1108.494751 983.978577,1110.885254 
	C999.911255,1110.885254 1015.322083,1110.885254 1030.999878,1110.885254 
	C1032.680664,1105.673096 1034.352539,1100.488647 1036.024414,1095.304199 
	C1034.664429,1095.234009 1034.004883,1095.532715 1033.809326,1096.018311 
	C1029.762817,1106.064209 1022.128601,1109.416748 1011.821716,1108.023315 
	C1010.022583,1107.780396 1008.158081,1107.920410 1006.330261,1108.012085 
	C1002.694824,1108.194458 1001.211487,1106.406860 1001.238586,1102.901001 
	C1001.293823,1095.744995 1001.255066,1088.588379 1001.255066,1081.030029 
	C1006.592590,1081.030029 1011.725891,1081.030029 1017.730896,1081.139160 
M1905.497192,1102.253296 
	C1905.991577,1108.018311 1902.387207,1110.011841 1897.560303,1110.805054 
	C1912.991821,1110.805054 1928.423340,1110.805054 1944.024536,1110.805054 
	C1945.742920,1105.497681 1947.401855,1100.374146 1949.123413,1095.057007 
	C1948.224487,1095.099731 1947.865356,1095.034790 1947.584229,1095.153809 
	C1947.313110,1095.268555 1947.013916,1095.531616 1946.911499,1095.799927 
	C1942.727417,1106.762939 1934.191650,1109.337158 1923.565552,1108.016479 
	C1921.924683,1107.812500 1920.237305,1107.958862 1918.571899,1107.978882 
	C1915.636963,1108.014160 1914.304443,1106.435547 1914.293213,1103.649780 
	C1914.263062,1096.204102 1914.282959,1088.758057 1914.282959,1081.008911 
	C1918.146484,1081.008911 1921.630249,1081.009521 1925.114136,1081.008667 
	C1934.518188,1081.006470 1934.606689,1081.073364 1937.350220,1089.663818 
	C1937.398682,1089.815430 1937.929077,1089.812988 1938.376465,1089.914673 
	C1938.376465,1082.926025 1938.376465,1076.002441 1938.376465,1069.078857 
	C1935.209351,1076.711792 1934.779175,1077.543579 1930.201904,1077.847900 
	C1924.967041,1078.196045 1919.691284,1077.928589 1914.523193,1077.928589 
	C1914.523193,1069.352905 1914.523193,1061.296265 1914.523193,1053.012329 
	C1918.662720,1053.012329 1922.498047,1053.218872 1926.303467,1052.969360 
	C1934.214722,1052.450562 1941.497681,1052.748047 1943.229492,1062.785278 
	C1943.241211,1062.853149 1943.517456,1062.875244 1943.954346,1062.999634 
	C1943.954346,1058.652710 1943.954346,1054.401855 1943.954346,1049.988281 
	C1935.718262,1049.988281 1928.070679,1049.988159 1920.423218,1049.988159 
	C1912.813843,1049.988159 1905.204468,1049.988281 1897.595093,1049.988281 
	C1904.628418,1051.634521 1905.450562,1052.458496 1905.494263,1059.825928 
	C1905.576416,1073.651367 1905.512817,1087.477539 1905.497192,1102.253296 
M2136.542480,1111.041138 
	C2141.388184,1111.041138 2146.233643,1111.041138 2151.079346,1111.041138 
	C2147.315918,1110.151367 2143.401367,1109.450806 2143.170166,1104.826538 
	C2142.809570,1097.610840 2143.074463,1090.363892 2143.074463,1083.281738 
	C2147.435791,1083.548584 2151.241211,1084.073486 2155.026855,1083.955688 
	C2164.563232,1083.659302 2171.337402,1077.510132 2171.970459,1068.932983 
	C2172.648438,1059.743530 2167.327148,1052.074707 2157.675781,1051.138062 
	C2147.251953,1050.126465 2136.654297,1050.909058 2128.518555,1050.909058 
	C2133.476807,1051.974243 2134.069092,1052.703979 2134.089111,1060.685059 
	C2134.122070,1073.670532 2134.172852,1086.656250 2134.077881,1099.640991 
	C2134.058838,1102.233154 2134.181641,1105.351807 2132.850830,1107.259277 
	C2131.550537,1109.123047 2128.475342,1109.748413 2125.974365,1111.021484 
	C2129.261230,1111.021484 2132.414795,1111.021484 2136.542480,1111.041138 
M2456.989502,1111.842041 
	C2464.522705,1110.191895 2470.349365,1106.324219 2471.919678,1098.395996 
	C2473.610840,1089.858032 2469.167236,1084.158569 2462.061523,1080.047241 
	C2455.889404,1076.476074 2449.688721,1072.932861 2443.714111,1069.048584 
	C2439.800781,1066.504395 2437.539307,1062.881592 2439.774902,1057.984375 
	C2441.789551,1053.569946 2446.845459,1051.134033 2451.836426,1052.157593 
	C2459.695068,1053.769043 2464.252930,1058.684326 2465.896729,1066.453125 
	C2466.151123,1067.653687 2466.546387,1068.824463 2466.876465,1070.009033 
	C2467.185547,1069.917114 2467.494629,1069.825195 2467.803711,1069.733398 
	C2467.803711,1062.906860 2467.803711,1056.080322 2467.803711,1048.891602 
	C2463.876709,1053.269043 2463.964600,1053.024780 2457.956055,1050.862427 
	C2454.752930,1049.709717 2451.175293,1049.031128 2447.782715,1049.088501 
	C2440.566895,1049.210571 2434.129150,1054.203613 2432.278564,1060.379517 
	C2430.332031,1066.875000 2432.643066,1073.032715 2438.995850,1077.730957 
	C2441.524658,1079.601440 2444.253174,1081.208740 2446.936035,1082.862793 
	C2451.172119,1085.474487 2455.577637,1087.833984 2459.663086,1090.659668 
	C2463.015625,1092.978516 2464.777832,1096.451294 2463.919922,1100.625977 
	C2463.033691,1104.940186 2460.108643,1107.412354 2455.872559,1108.531128 
	C2446.959473,1110.885742 2437.613281,1105.292603 2435.171143,1096.049927 
	C2434.715820,1094.326782 2434.284912,1092.597412 2433.842773,1090.870972 
	C2433.432617,1090.973145 2433.022217,1091.075317 2432.612061,1091.177490 
	C2432.612061,1098.069336 2432.612061,1104.961060 2432.612061,1111.852905 
	C2434.881348,1106.375854 2438.405762,1108.609741 2442.066650,1109.564209 
	C2446.655273,1110.760498 2451.433838,1111.227783 2456.989502,1111.842041 
M2633.893066,1094.505371 
	C2633.432861,1093.310303 2632.972656,1092.115112 2632.512451,1090.919922 
	C2632.243896,1091.041138 2631.975342,1091.162231 2631.706787,1091.283447 
	C2631.706787,1098.153809 2631.706787,1105.024170 2631.706787,1111.894653 
	C2633.659424,1106.932861 2636.898193,1107.909058 2640.402832,1109.284546 
	C2642.861084,1110.249512 2645.377441,1111.175049 2647.952637,1111.714355 
	C2657.410156,1113.695068 2667.221924,1108.840088 2670.292480,1100.828003 
	C2673.300293,1092.979126 2670.132324,1085.701660 2661.078369,1080.100220 
	C2655.157715,1076.437012 2648.979004,1073.176758 2643.173828,1069.344482 
	C2638.068359,1065.973999 2636.855713,1062.186646 2638.732178,1058.027100 
	C2640.677490,1053.715454 2645.593994,1051.297241 2650.758545,1052.111694 
	C2657.994141,1053.253052 2663.176025,1058.503418 2664.875488,1066.381104 
	C2665.137695,1067.596191 2665.503662,1068.788818 2665.821533,1069.991821 
	C2666.075439,1069.903442 2666.329590,1069.815186 2666.583496,1069.726929 
	C2666.583496,1062.853760 2666.583496,1055.980713 2666.583496,1049.107666 
	C2664.776123,1053.878174 2662.017334,1053.574707 2658.505859,1051.532959 
	C2656.950928,1050.628906 2655.160645,1050.056763 2653.411133,1049.572754 
	C2644.683105,1047.157593 2635.448486,1051.176270 2631.927979,1058.844116 
	C2628.644775,1065.994873 2631.329102,1073.316284 2639.460693,1078.778809 
	C2643.177002,1081.275391 2647.156250,1083.376831 2650.934082,1085.786377 
	C2654.135986,1087.828613 2657.662109,1089.624512 2660.262207,1092.292358 
	C2665.599121,1097.768188 2663.288086,1105.676514 2656.017822,1108.136353 
	C2646.522705,1111.349121 2637.477783,1106.067017 2633.893066,1094.505371 
M2563.609375,1099.186401 
	C2566.338623,1107.290527 2566.212402,1107.695068 2559.833740,1110.841553 
	C2567.533447,1110.841553 2575.064941,1110.841553 2582.596680,1110.841553 
	C2577.493408,1109.169434 2575.405762,1105.107300 2573.565186,1100.601074 
	C2567.105713,1084.788452 2560.494629,1069.037720 2553.919678,1053.272461 
	C2553.267334,1051.708130 2552.470703,1050.203979 2551.244141,1047.629517 
	C2549.878906,1049.953003 2549.027344,1051.100342 2548.480957,1052.377930 
	C2542.940918,1065.331055 2537.718750,1078.428711 2531.839111,1091.224609 
	C2528.615479,1098.239380 2527.954590,1107.062866 2517.928223,1111.000732 
	C2522.518311,1111.000732 2525.501709,1111.000732 2528.484863,1111.000732 
	C2531.464600,1111.000732 2534.444580,1111.000732 2537.424316,1111.000732 
	C2534.370117,1109.120728 2529.729492,1109.106079 2531.203369,1103.998169 
	C2532.435791,1099.727661 2533.743652,1095.013794 2536.544922,1091.846802 
	C2538.070801,1090.122070 2542.772217,1091.164551 2546.044678,1091.041748 
	C2548.205566,1090.960571 2550.447021,1091.388672 2552.521973,1090.959351 
	C2558.905029,1089.638306 2562.021484,1092.605103 2563.609375,1099.186401 
M908.690063,1069.630127 
	C908.301880,1062.773560 907.913696,1055.916870 907.492798,1048.483154 
	C902.721069,1053.163574 902.721069,1053.163574 897.027954,1051.045166 
	C884.927063,1046.542603 872.315186,1049.447998 863.698853,1058.723389 
	C854.914978,1068.179199 852.615112,1083.571655 858.194275,1095.564941 
	C863.453552,1106.870483 873.954407,1112.766113 887.515259,1112.027344 
	C897.577698,1111.479126 907.143066,1104.748413 909.199768,1096.217896 
	C907.125549,1097.906738 905.416992,1099.978394 903.504395,1101.840332 
	C892.040405,1113.000244 872.818237,1108.785278 867.665466,1093.687988 
	C864.282959,1083.777588 864.898621,1073.640137 868.920837,1063.939941 
	C872.179016,1056.082275 878.438965,1052.164062 886.888428,1052.070190 
	C895.417603,1051.975342 901.370483,1056.145142 904.990173,1063.784302 
	C905.952148,1065.814575 906.932190,1067.836304 908.690063,1069.630127 
M603.926331,1094.320312 
	C603.153503,1095.765381 602.278137,1097.165771 601.625610,1098.663330 
	C598.754089,1105.252563 593.591064,1108.067627 586.595703,1107.993774 
	C583.433594,1107.960327 580.257935,1107.806152 577.111389,1108.030029 
	C572.216614,1108.378296 570.172729,1106.353638 570.230896,1101.400757 
	C570.379395,1088.753418 570.202881,1076.102783 570.292969,1063.454224 
	C570.315186,1060.329224 569.897949,1056.564575 571.436035,1054.268433 
	C572.930847,1052.036865 576.676086,1051.312988 578.900940,1050.194580 
	C570.884644,1050.194580 562.202209,1050.194580 552.430359,1050.194580 
	C560.827393,1051.953247 561.478577,1052.713257 561.518311,1060.697754 
	C561.581299,1073.347046 561.606995,1085.997192 561.530701,1098.646362 
	C561.513794,1101.448120 561.829224,1104.765137 560.486450,1106.896973 
	C559.217896,1108.911377 555.969238,1109.678589 553.781799,1110.889038 
	C568.954712,1110.889038 584.398804,1110.889038 600.399292,1110.889038 
	C601.829285,1105.335083 603.255432,1099.796265 603.926331,1094.320312 
M347.434784,1049.973877 
	C333.826050,1049.973877 320.217316,1049.973877 306.351807,1049.973877 
	C306.351807,1054.722534 306.351807,1058.978394 306.351807,1064.477051 
	C310.895630,1051.899048 313.547302,1052.147095 326.893036,1053.826172 
	C326.893036,1069.289185 326.964752,1084.772827 326.862976,1100.255127 
	C326.811554,1108.078003 326.008820,1108.918335 317.891449,1110.813232 
	C326.997681,1110.813232 335.234253,1110.813232 344.545105,1110.813232 
	C336.350342,1109.027954 335.892670,1108.555054 335.678711,1100.623779 
	C335.512482,1094.463501 335.573761,1088.296631 335.564240,1082.132690 
	C335.549408,1072.538086 335.560303,1062.943604 335.560303,1052.673950 
	C340.449860,1053.096802 345.212158,1052.403198 348.790527,1054.143799 
	C352.058411,1055.733398 354.044373,1059.958618 356.888184,1063.374023 
	C356.668854,1058.953125 356.452454,1054.592041 356.222687,1049.961548 
	C353.380280,1049.961548 350.895203,1049.961548 347.434784,1049.973877 
M1258.542603,1053.025024 
	C1260.168701,1053.025024 1261.794800,1053.025024 1263.888672,1053.025024 
	C1263.888672,1068.165649 1263.937378,1082.932983 1263.847778,1097.699707 
	C1263.829834,1100.663086 1264.072144,1104.057007 1262.749756,1106.456055 
	C1261.567139,1108.601562 1258.391235,1109.648560 1256.575073,1110.859985 
	C1264.104492,1110.859985 1272.333252,1110.859985 1280.561890,1110.859985 
	C1276.451904,1110.141846 1272.739136,1109.159302 1272.740356,1103.884399 
	C1272.743896,1087.100586 1272.741699,1070.316772 1272.741699,1052.776245 
	C1277.168457,1053.109009 1281.920532,1052.343750 1285.478638,1054.057251 
	C1288.868286,1055.689819 1291.012329,1059.908691 1293.984497,1063.311646 
	C1293.716064,1058.890625 1293.451294,1054.530029 1293.191895,1050.256348 
	C1276.354370,1050.256348 1259.949219,1050.256348 1243.403076,1050.256348 
	C1243.403076,1054.791992 1243.403076,1059.018921 1243.403076,1064.523071 
	C1247.697388,1053.754517 1248.644775,1053.047729 1258.542603,1053.025024 
M1680.393921,1097.463989 
	C1679.378174,1102.168335 1683.562866,1108.821411 1675.196655,1111.093140 
	C1683.849487,1110.993286 1692.421631,1111.238892 1700.675415,1109.736450 
	C1709.186523,1108.187012 1714.251831,1099.651001 1713.772949,1090.385254 
	C1713.276489,1080.780884 1708.206177,1074.024902 1699.314087,1072.858398 
	C1691.468384,1071.829346 1683.462769,1072.020142 1675.527710,1071.672363 
	C1679.669434,1072.775879 1680.426636,1075.526978 1680.395630,1078.992065 
	C1680.343506,1084.818726 1680.390381,1090.646240 1680.393921,1097.463989 
M1769.784668,1108.936035 
	C1766.953979,1108.952393 1764.115479,1108.844604 1761.294556,1109.018799 
	C1758.223999,1109.208252 1757.131348,1107.893799 1757.242554,1104.906128 
	C1757.396973,1100.753784 1757.281250,1096.591553 1757.281250,1091.868286 
	C1762.631470,1093.201904 1769.695679,1088.479858 1772.288452,1097.435791 
	C1772.288452,1093.189209 1772.288452,1088.942627 1772.288452,1083.836182 
	C1769.289429,1090.535034 1767.990234,1090.972778 1757.470459,1089.564209 
	C1757.470459,1084.475586 1757.470459,1079.387085 1757.470459,1073.766479 
	C1763.967285,1075.519775 1772.211060,1069.877441 1776.271973,1079.594971 
	C1776.155273,1077.163330 1776.038452,1074.731689 1775.915039,1072.163330 
	C1766.003906,1072.163330 1756.308105,1072.163330 1746.003174,1072.163330 
	C1751.415771,1073.975586 1751.702026,1074.253418 1751.755737,1079.724487 
	C1751.830811,1087.383911 1751.672485,1095.045776 1751.777710,1102.704468 
	C1751.831177,1106.599487 1751.314941,1109.923218 1746.753662,1110.759399 
	C1756.510742,1110.759399 1766.267700,1110.759399 1776.157837,1110.759399 
	C1777.207031,1107.486450 1778.184814,1104.436523 1779.161987,1101.388062 
	C1776.171143,1103.984863 1773.394897,1106.395264 1769.784668,1108.936035 
M755.093933,1074.407837 
	C756.296082,1073.759399 757.498230,1073.110840 759.184753,1072.201172 
	C754.440674,1072.201172 750.321350,1072.201172 745.805420,1072.201172 
	C749.898804,1074.956909 750.148926,1075.714722 747.885132,1079.509644 
	C745.522949,1083.469238 742.987732,1087.325562 740.249268,1091.669434 
	C737.552734,1087.460205 735.119446,1083.544678 732.565002,1079.709717 
	C730.320862,1076.340576 729.358704,1073.434448 735.953735,1072.307617 
	C729.413940,1072.307617 724.253662,1072.307617 720.631409,1072.307617 
	C723.982849,1077.191650 727.471680,1082.677979 731.377441,1087.849487 
	C734.943665,1092.571411 736.608093,1097.550903 736.060547,1103.517090 
	C735.733521,1107.080566 735.516541,1110.148315 731.099365,1110.822021 
	C736.263428,1110.822021 741.427429,1110.822021 746.458618,1110.822021 
	C745.014099,1109.847534 742.317017,1108.930054 742.232849,1107.815430 
	C741.863220,1102.921509 740.860535,1097.366821 742.680847,1093.179077 
	C745.534180,1086.614990 750.479004,1080.959961 755.093933,1074.407837 
z"/>
<path fill="#111111" opacity="1.000000" stroke="none" 
	d="
M400.831238,515.837524 
	C407.956268,509.660645 414.331177,502.188965 422.345001,497.546478 
	C447.749634,482.829224 473.364594,468.361481 499.637238,455.281647 
	C542.892822,433.746826 586.340271,412.512451 630.414917,392.728882 
	C686.627686,367.496918 744.698059,347.003662 803.575989,328.787231 
	C859.334473,311.535858 915.690186,296.518097 972.987488,285.552612 
	C1018.033752,276.931671 1063.384399,269.752686 1108.769897,263.092163 
	C1160.698853,255.471405 1213.045044,251.737503 1265.472290,249.472473 
	C1288.091553,248.495255 1310.735596,248.093063 1333.707275,247.419724 
	C1333.707275,367.067291 1333.707275,486.308289 1333.707275,603.767456 
	C1329.721558,585.390747 1325.906128,565.178711 1320.901245,545.265564 
	C1310.183350,502.621368 1294.639893,461.965179 1269.368286,425.515564 
	C1241.183960,384.865112 1203.734131,356.231781 1157.443848,339.144623 
	C1122.342896,326.187805 1085.836792,320.625000 1048.593140,318.851013 
	C996.420593,316.365906 944.848328,321.751617 893.427551,329.788025 
	C820.181213,341.235535 748.590942,359.268951 678.526672,383.429535 
	C626.019775,401.535736 574.893677,422.936646 525.113159,447.582489 
	C482.941711,468.461151 442.006714,491.526642 401.630707,516.352661 
	C401.057953,516.133850 400.944611,515.985657 400.831238,515.837524 
z"/>
<path fill="#111111" opacity="1.000000" stroke="none" 
	d="
M2306.850098,516.166992 
	C2288.408691,505.254700 2270.134766,494.046997 2251.497070,483.480865 
	C2167.070801,435.617096 2078.581055,397.188507 1985.668457,368.933594 
	C1931.207275,352.371918 1875.934814,339.426453 1819.768677,330.374420 
	C1769.894409,322.336395 1719.765869,316.798431 1669.116333,318.425659 
	C1627.656616,319.757721 1586.957153,325.459473 1547.971069,340.500305 
	C1492.104736,362.053375 1451.121704,400.182983 1422.931152,452.602234 
	C1404.444214,486.977966 1392.529663,523.709473 1384.040527,561.633545 
	C1380.854126,575.868774 1378.253296,590.234985 1375.255615,605.189209 
	C1375.255615,485.804047 1375.255615,367.030884 1375.255615,248.469070 
	C1389.160156,248.469070 1403.094360,247.994186 1416.985229,248.567505 
	C1446.279053,249.776535 1475.584717,251.065689 1504.820679,253.207306 
	C1530.713013,255.104034 1556.559570,257.840576 1582.348755,260.867523 
	C1607.620483,263.833771 1632.864380,267.191681 1657.996216,271.164154 
	C1705.291626,278.639954 1752.203735,288.121002 1798.754517,299.389069 
	C1872.758057,317.302338 1945.327148,339.833313 2016.405640,367.098297 
	C2077.115234,390.385956 2136.258301,417.199127 2193.885010,447.326935 
	C2222.020020,462.036255 2250.373779,476.370819 2278.006104,491.976776 
	C2288.708496,498.021210 2297.691406,507.110138 2307.386719,515.285889 
	C2307.160645,515.895386 2307.005371,516.031128 2306.850098,516.166992 
z"/>
<path fill="#131313" opacity="1.000000" stroke="none" 
	d="
M991.346191,815.548950 
	C993.592896,821.471558 995.692139,827.033203 998.198669,833.674011 
	C1002.665649,821.256653 1006.784790,809.873169 1010.857178,798.473022 
	C1023.367798,763.451294 1035.837769,728.414978 1048.445679,693.428406 
	C1048.935913,692.068115 1050.664307,690.211548 1051.846802,690.188660 
	C1064.127319,689.950928 1076.414062,690.042297 1089.196289,690.042297 
	C1089.196289,693.124146 1089.195801,695.746338 1089.196289,698.368530 
	C1089.205566,749.525818 1089.202515,800.683167 1089.233032,851.840454 
	C1089.241211,865.525024 1092.180908,868.460144 1105.921509,868.737671 
	C1108.219238,868.784058 1110.518799,868.744141 1113.142822,868.744141 
	C1113.142822,872.840881 1113.142822,876.578369 1113.142822,880.561829 
	C1087.263062,880.561829 1061.512573,880.561829 1035.409912,880.561829 
	C1035.409912,876.828308 1035.409912,873.080261 1035.409912,869.088501 
	C1039.715332,868.804443 1044.193970,868.747314 1048.602539,868.161926 
	C1055.107910,867.298218 1057.500366,864.671143 1058.224243,858.072937 
	C1058.513794,855.433838 1058.556274,852.757751 1058.558838,850.098450 
	C1058.605591,803.274170 1058.630737,756.449829 1058.645630,709.625549 
	C1058.645996,708.313599 1058.480713,707.001648 1057.405518,705.421570 
	C1036.277954,763.876709 1015.150330,822.331848 994.083862,880.617798 
	C985.636597,881.005249 985.661316,880.995911 983.032349,874.041382 
	C962.318542,819.246277 941.594971,764.454834 920.869385,709.664185 
	C920.534729,708.779724 920.136169,707.919373 919.227600,705.771667 
	C918.882324,707.858948 918.629578,708.668335 918.631653,709.476990 
	C918.749329,755.464050 918.868347,801.451050 919.070984,847.437805 
	C919.084106,850.408569 919.548584,853.420959 920.167786,856.336548 
	C921.545349,862.822876 927.001892,866.970642 935.204956,868.029785 
	C937.816101,868.367004 940.435974,868.637146 943.224792,868.957886 
	C943.224792,872.974060 943.224792,876.719177 943.224792,880.573730 
	C922.202576,880.573730 901.457153,880.573730 880.463379,880.573730 
	C880.463379,876.742371 880.463379,873.140320 880.463379,868.985535 
	C883.086121,868.678650 885.677429,868.393127 888.263977,868.069458 
	C897.504639,866.913208 902.154602,862.576294 902.886902,853.318665 
	C903.752258,842.378235 904.428406,831.391968 904.469666,820.422913 
	C904.629395,777.938110 904.502380,735.452209 904.498047,692.966736 
	C904.497925,692.162476 904.693604,691.358276 904.830994,690.299561 
	C918.084656,690.299561 931.183228,690.299561 944.508850,690.299561 
	C960.060120,731.896973 975.629395,773.542480 991.346191,815.548950 
z"/>
<path fill="#131313" opacity="1.000000" stroke="none" 
	d="
M1714.832031,230.174927 
	C1703.280884,222.363800 1691.966309,214.172592 1680.137329,206.807571 
	C1630.197632,175.713638 1576.109863,154.471802 1519.214355,140.169144 
	C1452.173218,123.316063 1384.112061,117.147453 1315.171265,122.280396 
	C1247.555420,127.314690 1182.709839,143.237259 1121.758545,173.581879 
	C1077.396362,195.667633 1037.918579,224.398224 1003.746887,260.372772 
	C1001.974426,262.238770 999.270508,263.714355 996.751282,264.298828 
	C975.453308,269.240234 954.097351,273.931824 933.215088,278.596497 
	C935.896912,275.543976 939.223022,271.631653 942.689514,267.847900 
	C946.175842,264.042572 949.738892,260.302673 953.375977,256.641113 
	C1017.234009,192.353714 1094.051758,150.580353 1180.732788,126.067848 
	C1214.079224,116.637779 1248.049316,110.425148 1282.538086,106.845795 
	C1319.605591,102.998840 1356.750244,102.681335 1393.826782,105.241745 
	C1461.009644,109.881233 1525.834106,125.054497 1587.877197,151.530106 
	C1634.040894,171.229538 1676.764526,196.619934 1715.299805,229.317108 
	C1715.130981,229.901764 1714.981567,230.038330 1714.832031,230.174927 
z"/>
<path fill="#141414" opacity="1.000000" stroke="none" 
	d="
M1491.065674,730.812012 
	C1492.229980,744.933533 1488.629028,756.914307 1478.374512,766.503906 
	C1468.603271,775.641479 1456.422485,779.170898 1444.504272,780.938904 
	C1453.316650,783.401245 1463.039062,785.283569 1472.114014,788.824890 
	C1491.832031,796.519348 1501.815918,810.952209 1501.562134,829.580322 
	C1501.281494,850.176086 1490.567505,865.337463 1470.890625,873.050415 
	C1458.017578,878.096436 1444.541748,880.282776 1430.854004,880.395752 
	C1397.381958,880.672119 1363.906128,880.485901 1330.024902,880.485901 
	C1330.024902,876.887573 1330.024902,873.144165 1330.024902,869.093201 
	C1334.149048,868.794678 1338.600464,868.677063 1342.993408,868.108032 
	C1350.168579,867.178589 1352.794434,864.265930 1353.041016,856.914917 
	C1353.264648,850.258850 1353.176636,843.591248 1353.176025,836.928772 
	C1353.171631,789.615967 1353.154541,742.303223 1353.141479,694.990417 
	C1353.141113,693.527893 1353.141357,692.065308 1353.141357,690.065918 
	C1356.136108,690.065918 1358.745117,690.065308 1361.354004,690.065979 
	C1384.344116,690.072388 1407.337036,689.858765 1430.323242,690.159485 
	C1446.883423,690.376160 1462.737305,693.564941 1476.162476,704.253479 
	C1484.596680,710.968445 1489.813599,719.551636 1491.065674,730.812012 
M1383.816040,829.499939 
	C1383.845581,838.329102 1383.791382,847.159546 1383.929443,855.987061 
	C1384.052612,863.866272 1387.380859,867.890564 1395.385132,867.945679 
	C1408.832886,868.038147 1422.369507,868.050354 1435.715942,866.644348 
	C1450.807129,865.054504 1462.753296,857.956543 1466.378906,841.834351 
	C1467.638428,836.233948 1468.026245,830.256165 1467.699463,824.514038 
	C1466.657104,806.195923 1458.580444,795.651733 1442.753418,791.366821 
	C1423.510620,786.157166 1403.840576,788.025208 1383.816040,787.579041 
	C1383.816040,801.593628 1383.816040,815.046753 1383.816040,829.499939 
M1395.503174,775.581116 
	C1407.256348,774.708252 1419.093628,774.428284 1430.736816,772.779419 
	C1440.457153,771.402832 1449.601685,767.418945 1454.471802,758.104736 
	C1461.118530,745.392944 1461.059570,732.107727 1454.880249,719.252930 
	C1453.028076,715.399658 1449.543091,712.067871 1446.163940,709.273621 
	C1441.069092,705.060669 1434.899414,702.893188 1428.191406,702.864563 
	C1413.458496,702.801758 1398.724854,702.845154 1384.163330,702.845154 
	C1384.163330,726.945862 1384.163330,751.169434 1384.163330,775.581177 
	C1387.850952,775.581177 1391.176270,775.581177 1395.503174,775.581116 
z"/>
<path fill="#141414" opacity="1.000000" stroke="none" 
	d="
M1836.339355,866.583862 
	C1831.295044,855.622375 1830.594971,844.117371 1828.950073,832.781372 
	C1827.928223,825.740051 1826.744995,818.630493 1824.652466,811.854858 
	C1820.009644,796.822754 1809.074829,788.827881 1792.625122,788.036743 
	C1784.983887,787.669312 1777.310425,787.973999 1768.999146,787.973999 
	C1768.935669,789.296814 1768.795776,790.866760 1768.794678,792.436768 
	C1768.780151,812.762878 1768.758301,833.088989 1768.795898,853.415039 
	C1768.817627,865.176025 1771.692139,868.166260 1783.396606,868.704346 
	C1786.188477,868.832764 1788.991211,868.723389 1791.929932,868.723389 
	C1791.929932,872.826111 1791.929932,876.469788 1791.929932,880.477661 
	C1766.312256,880.477661 1740.748169,880.477661 1714.847900,880.477661 
	C1714.847900,876.885803 1714.847900,873.141785 1714.847900,868.566101 
	C1718.119141,868.566101 1721.411133,868.828857 1724.647827,868.518372 
	C1735.754150,867.452881 1738.101685,864.821472 1738.107300,853.727966 
	C1738.126099,816.574524 1738.115967,779.421082 1738.116699,742.267639 
	C1738.116943,725.120300 1738.116699,707.972900 1738.116699,690.662354 
	C1738.875000,690.421631 1739.474243,690.060730 1740.069458,690.066956 
	C1766.883423,690.347656 1793.724365,690.034302 1820.501343,691.193054 
	C1837.882202,691.945190 1854.394653,697.073303 1867.189209,709.875793 
	C1883.966553,726.663513 1881.637817,754.882996 1862.758667,769.250427 
	C1850.252197,778.768127 1835.808716,782.533813 1820.534790,784.028809 
	C1819.409302,784.139038 1818.277344,784.183350 1815.893433,784.341492 
	C1817.719238,785.194763 1818.440430,785.732910 1819.231934,785.872375 
	C1838.202271,789.214722 1850.134277,800.408752 1855.562256,818.662170 
	C1858.872681,829.794495 1861.818237,841.034912 1865.034058,852.196228 
	C1865.718628,854.572876 1866.730347,856.882080 1867.819092,859.111145 
	C1872.792969,869.293579 1881.091919,870.985229 1889.997681,863.697449 
	C1890.508301,863.279541 1890.989624,862.825684 1891.479980,862.392639 
	C1895.291626,863.525146 1894.238770,865.973328 1893.127563,868.279175 
	C1887.771118,879.395691 1878.081421,883.873535 1866.539062,884.785767 
	C1852.503296,885.895081 1842.595337,879.475769 1836.339355,866.583862 
M1768.771851,769.445312 
	C1768.771851,771.539673 1768.771851,773.634033 1768.771851,777.172302 
	C1785.681763,775.745911 1801.953125,775.128540 1817.974365,772.794739 
	C1832.030884,770.747070 1841.821533,762.276367 1843.659058,747.535950 
	C1844.607422,739.927307 1844.058105,731.955811 1842.987793,724.315979 
	C1841.624146,714.580933 1835.689697,708.274414 1825.814819,705.939514 
	C1807.171265,701.531189 1788.243408,702.535522 1768.769653,702.298218 
	C1768.769653,724.648804 1768.769653,746.551514 1768.771851,769.445312 
z"/>
<path fill="#131313" opacity="1.000000" stroke="none" 
	d="
M2475.151367,736.102051 
	C2481.622559,720.598450 2487.978271,705.459290 2494.297607,690.406250 
	C2494.763916,690.273254 2495.080566,690.109985 2495.400879,690.102112 
	C2505.300781,689.856445 2505.235840,689.886719 2509.198975,699.093750 
	C2531.782959,751.558167 2554.446777,803.988159 2576.955322,856.484863 
	C2580.256592,864.183655 2583.877197,870.852173 2594.076660,868.688477 
	C2594.076660,873.069092 2594.076660,876.837219 2594.076660,880.706360 
	C2580.467529,880.706360 2567.154541,880.706360 2553.503174,880.706360 
	C2547.104492,864.391663 2540.640869,848.072021 2534.304932,831.702698 
	C2529.549072,819.415100 2529.622314,819.389709 2516.435059,819.391663 
	C2497.609863,819.394470 2478.783691,819.491333 2459.960449,819.302612 
	C2456.524414,819.268127 2455.054932,820.353821 2453.944336,823.547852 
	C2447.732910,841.412964 2441.287598,859.196777 2434.911133,877.004395 
	C2434.473389,878.227417 2433.947998,879.419067 2433.477295,880.590698 
	C2424.647949,880.590698 2416.040039,880.590698 2407.187988,880.590698 
	C2407.187988,876.785095 2407.187988,873.183105 2407.187988,869.080811 
	C2417.510742,869.044434 2422.382812,862.309143 2425.993896,853.622803 
	C2442.245361,814.530884 2458.672119,775.511780 2475.151367,736.102051 
M2506.231934,764.268433 
	C2501.611328,753.486328 2496.990723,742.704163 2491.906006,730.838989 
	C2481.340332,756.516479 2471.223145,781.104065 2460.947754,806.076294 
	C2482.282227,806.076294 2502.960693,806.076294 2524.081299,806.076294 
	C2518.136719,792.097900 2512.362549,778.519592 2506.231934,764.268433 
z"/>
<path fill="#121212" opacity="1.000000" stroke="none" 
	d="
M663.463501,690.178467 
	C664.094482,692.742432 664.450867,695.204163 664.444885,697.665039 
	C664.348755,737.151550 664.578796,776.644226 663.913696,816.121704 
	C663.592712,835.176575 657.539001,852.458435 642.257446,865.212646 
	C631.972046,873.796997 619.721130,877.836365 606.647095,879.423096 
	C584.354736,882.128479 562.418945,881.124939 541.675659,871.406860 
	C521.524536,861.966064 511.055908,846.340271 511.201263,823.671814 
	C511.427734,788.348938 511.276306,753.023682 511.255554,717.699402 
	C511.247894,704.689087 508.569519,702.061523 495.385620,701.922913 
	C493.091125,701.898743 490.796173,701.919434 488.223755,701.919434 
	C488.223755,697.928528 488.223755,694.329346 488.223755,690.382202 
	C505.721680,690.382202 523.269653,690.382202 541.234497,690.382202 
	C541.234497,692.920715 541.233704,695.393311 541.234619,697.865906 
	C541.249329,736.355957 541.149841,774.846680 541.378418,813.335449 
	C541.422668,820.772949 542.060913,828.352234 543.634338,835.603699 
	C546.554871,849.063293 555.859253,857.534180 568.170776,862.469727 
	C582.729919,868.306335 597.932068,869.587463 613.175537,865.547668 
	C636.943726,859.248657 650.708618,840.574463 650.773438,814.904846 
	C650.875244,774.582336 650.819946,734.259460 650.831177,693.936707 
	C650.831482,692.808044 650.831238,691.679321 650.831238,690.075806 
	C655.119263,690.075806 659.069763,690.075806 663.463501,690.178467 
z"/>
<path fill="#131313" opacity="1.000000" stroke="none" 
	d="
M121.550133,749.551636 
	C134.940659,718.518066 157.004776,697.799255 190.106461,690.763794 
	C212.929825,685.912964 234.493088,689.190613 252.820038,705.261597 
	C257.551331,709.410645 260.604858,709.024658 263.511810,703.508972 
	C265.471771,699.790100 266.462799,695.560486 267.988129,691.276123 
	C271.174530,691.276123 274.935577,691.276123 278.951477,691.276123 
	C278.951477,715.787720 278.951477,740.049377 278.951477,764.633545 
	C275.585327,764.633545 272.174835,764.633545 269.455353,764.633545 
	C265.060974,754.002625 261.356079,743.336853 256.344971,733.324890 
	C249.225540,719.100769 238.919586,707.695435 223.038223,702.927124 
	C200.296234,696.098877 174.836777,702.794067 161.649887,727.191284 
	C153.878342,741.569519 150.758804,757.037598 149.687897,773.125977 
	C148.475204,791.344177 149.663849,809.291382 153.852356,827.143738 
	C162.813965,865.340149 205.034714,880.498535 237.272446,861.946838 
	C239.122437,860.882202 240.965134,859.804810 242.972809,858.639648 
	C245.985489,861.715576 248.862946,864.653442 251.935257,867.790222 
	C237.439392,877.465149 221.435623,881.505432 204.222870,881.302673 
	C168.910416,880.886597 142.428696,865.169495 124.901184,834.706177 
	C116.550446,820.192322 114.337982,804.020996 114.582069,787.491821 
	C114.772423,774.601196 116.752258,762.004700 121.550133,749.551636 
z"/>
<path fill="#141414" opacity="1.000000" stroke="none" 
	d="
M2136.251953,836.999878 
	C2136.252197,787.905823 2136.252197,739.311829 2136.252197,690.368103 
	C2146.477783,690.368103 2156.367920,690.368103 2166.591064,690.368103 
	C2166.705078,691.681335 2166.911621,692.952332 2166.911865,694.223328 
	C2166.921631,746.849060 2166.909668,799.474731 2166.908203,852.100464 
	C2166.907959,865.543701 2169.605713,868.304016 2183.201904,868.765442 
	C2185.493164,868.843201 2187.789307,868.776428 2190.291504,868.776428 
	C2190.291504,872.972412 2190.291504,876.705139 2190.291504,880.622681 
	C2164.382080,880.622681 2138.800049,880.622681 2112.984375,880.622681 
	C2112.984375,876.722290 2112.984375,872.958435 2112.984375,869.117554 
	C2117.642334,868.767456 2122.094727,868.589783 2126.505371,868.063477 
	C2132.690918,867.325500 2135.710205,864.254272 2136.012939,857.973999 
	C2136.341553,851.161255 2136.192627,844.325562 2136.251953,836.999878 
z"/>
<path fill="#0A0A0A" opacity="1.000000" stroke="none" 
	d="
M2011.905762,1106.584473 
	C2014.267700,1108.340332 2016.505249,1109.688721 2018.225464,1110.725342 
	C2012.395386,1110.725342 2005.629761,1110.725342 1999.516968,1110.725342 
	C2001.312744,1109.777832 2004.400757,1109.089966 2005.738647,1107.177612 
	C2007.074707,1105.268188 2006.938965,1102.135376 2006.962769,1099.534302 
	C2007.078613,1086.873169 2007.042358,1074.210449 2007.038574,1061.548340 
	C2007.036255,1053.475342 2006.363647,1052.552124 1997.854614,1049.983154 
	C2003.998535,1049.983154 2008.931396,1049.759521 2013.818604,1050.133545 
	C2015.111450,1050.232422 2016.756836,1051.939087 2017.403076,1053.304077 
	C2023.370117,1065.906616 2029.148438,1078.598633 2034.996338,1091.257812 
	C2035.802612,1093.003418 2036.689575,1094.711792 2037.958618,1097.288940 
	C2041.834717,1088.797485 2045.383057,1081.022339 2048.932861,1073.247925 
	C2052.442383,1065.561890 2055.953369,1057.876709 2059.499756,1050.111938 
	C2065.258789,1050.111938 2070.905762,1050.111938 2076.144043,1050.111938 
	C2074.028564,1051.285767 2070.788086,1052.068848 2069.459961,1054.101562 
	C2068.086670,1056.203369 2068.305908,1059.517090 2068.288086,1062.303589 
	C2068.204834,1075.131226 2068.263428,1087.960083 2068.309082,1100.788208 
	C2068.335693,1108.252319 2069.305908,1109.360229 2076.453613,1111.020874 
	C2072.341553,1111.020874 2068.229248,1111.020874 2064.117188,1111.020874 
	C2059.956299,1111.020874 2055.795166,1111.020874 2051.634277,1111.020874 
	C2060.397949,1110.813232 2059.485107,1104.223633 2059.572266,1098.684204 
	C2059.759766,1086.769409 2059.629883,1074.849487 2059.629883,1062.931763 
	C2059.202393,1062.825073 2058.774902,1062.718384 2058.347412,1062.611694 
	C2050.909668,1078.817749 2043.471924,1095.023682 2035.371338,1112.673950 
	C2027.141724,1094.731201 2019.583008,1078.251221 2011.781494,1061.242065 
	C2011.781494,1076.640015 2011.781494,1091.408569 2011.905762,1106.584473 
z"/>
<path fill="#0B0B0B" opacity="1.000000" stroke="none" 
	d="
M1420.430908,1108.925537 
	C1422.070679,1109.394653 1423.339233,1109.759521 1424.607788,1110.124268 
	C1424.615601,1110.419067 1424.623413,1110.713745 1424.631226,1111.008545 
	C1419.684448,1111.008545 1414.721436,1111.224976 1409.802002,1110.857910 
	C1408.555176,1110.764893 1407.239380,1108.964233 1406.309204,1107.689941 
	C1401.014038,1100.435303 1395.706055,1093.184082 1390.658691,1085.757324 
	C1388.538330,1082.637329 1386.187378,1081.109985 1382.082642,1082.458984 
	C1382.082642,1089.624634 1381.902222,1096.928101 1382.146484,1104.217041 
	C1382.307983,1109.039429 1385.906738,1110.279419 1390.030518,1110.803955 
	C1381.732666,1110.803955 1373.434814,1110.803955 1364.716797,1110.803955 
	C1372.725464,1108.709473 1373.105957,1108.416382 1373.183960,1099.840454 
	C1373.305298,1086.517822 1373.268799,1073.191895 1373.128296,1059.869141 
	C1373.050903,1052.548706 1372.141479,1051.671509 1367.925659,1051.010010 
	C1376.822754,1051.010010 1388.454590,1050.507080 1400.013306,1051.209106 
	C1406.383545,1051.596069 1411.416992,1057.825562 1412.014526,1063.536621 
	C1412.724731,1070.322266 1409.617188,1075.627319 1403.051636,1078.691772 
	C1401.432129,1079.447754 1399.719116,1080.003540 1397.129517,1081.007935 
	C1405.183716,1090.247803 1409.165894,1102.237183 1420.430908,1108.925537 
M1401.964233,1063.876465 
	C1399.419800,1053.967285 1392.632690,1050.767456 1382.270508,1054.552612 
	C1382.270508,1062.642090 1382.270508,1070.712036 1382.270508,1078.760986 
	C1395.286865,1079.516846 1401.536133,1074.997314 1401.964233,1063.876465 
z"/>
<path fill="#0B0B0B" opacity="1.000000" stroke="none" 
	d="
M2228.242920,1082.999756 
	C2228.208252,1075.005371 2228.249512,1067.509766 2228.116943,1060.017090 
	C2227.987793,1052.703247 2227.162109,1051.776123 2220.082520,1050.421387 
	C2230.950195,1050.421387 2241.462646,1049.931641 2251.905762,1050.572998 
	C2260.619385,1051.108154 2266.380127,1056.849731 2267.005371,1063.839722 
	C2267.710938,1071.728394 2263.685059,1076.944214 2254.522949,1080.012085 
	C2253.928223,1080.211304 2253.334717,1080.413452 2251.637695,1080.986938 
	C2261.663818,1090.733032 2264.523682,1106.073364 2279.602295,1111.031372 
	C2274.767090,1111.031372 2269.922607,1111.193970 2265.104004,1110.911011 
	C2263.972168,1110.844482 2262.685303,1109.451782 2261.884277,1108.363892 
	C2256.462891,1101.001953 2251.001221,1093.661011 2245.878662,1086.092285 
	C2243.678467,1082.841675 2241.391846,1080.983032 2237.064941,1082.467529 
	C2237.064941,1089.476807 2236.999512,1096.610596 2237.086670,1103.742432 
	C2237.149414,1108.869751 2240.685303,1110.233154 2244.979004,1110.847656 
	C2236.656250,1110.847656 2228.333496,1110.847656 2219.174561,1110.847656 
	C2227.736816,1108.825439 2227.982666,1108.590942 2228.190674,1099.986450 
	C2228.323730,1094.493774 2228.233154,1088.995483 2228.242920,1082.999756 
M2237.012695,1062.556763 
	C2237.012695,1067.973267 2237.012695,1073.389648 2237.012695,1078.975098 
	C2244.867432,1079.006226 2251.974854,1078.598389 2255.854492,1070.972046 
	C2258.137451,1066.484131 2257.186035,1060.674316 2253.915771,1057.073242 
	C2249.988281,1052.748291 2244.144287,1051.903809 2237.012695,1054.711914 
	C2237.012695,1056.961426 2237.012695,1059.271240 2237.012695,1062.556763 
z"/>
<path fill="#0A0A0A" opacity="1.000000" stroke="none" 
	d="
M82.119522,1094.970215 
	C82.119415,1090.507324 82.119415,1086.536377 82.119415,1082.290894 
	C72.754089,1082.290894 63.671734,1082.290894 54.047150,1082.290894 
	C54.047150,1089.719849 53.816433,1097.152466 54.130974,1104.561890 
	C54.329586,1109.240356 58.274426,1109.904541 61.990223,1110.731934 
	C53.699112,1110.731934 45.407997,1110.731934 37.518654,1110.731934 
	C39.481258,1109.753174 42.584469,1109.155151 43.876888,1107.297485 
	C45.204762,1105.388672 45.031956,1102.251831 45.052395,1099.648804 
	C45.154465,1086.652588 45.111584,1073.655151 45.104595,1060.658203 
	C45.100319,1052.707764 44.423862,1051.868652 35.592594,1050.231201 
	C45.393291,1050.231201 53.720894,1050.231201 61.427025,1050.231201 
	C59.587685,1051.226929 56.498901,1051.950806 55.173813,1053.883667 
	C53.854244,1055.808472 54.092987,1058.941162 54.023838,1061.554199 
	C53.882854,1066.881226 53.989651,1072.215210 54.013523,1077.546265 
	C54.014874,1077.848389 54.188736,1078.149780 54.363861,1078.714600 
	C63.371655,1078.714600 72.452469,1078.714600 81.934113,1078.714600 
	C81.934113,1071.125732 82.464310,1063.478394 81.619598,1055.986084 
	C81.357155,1053.658325 77.367279,1051.750854 75.787819,1050.298340 
	C82.381332,1050.298340 90.641869,1050.298340 98.471619,1050.298340 
	C96.540955,1051.280029 93.343201,1051.895996 92.150246,1053.780884 
	C90.808968,1055.900146 91.021812,1059.162476 91.001144,1061.930908 
	C90.906616,1074.593994 90.960060,1087.258057 90.974594,1099.921875 
	C90.984192,1108.280762 91.291870,1108.674438 100.422318,1111.008911 
	C97.983459,1111.008911 96.893387,1111.008911 95.803322,1111.008911 
	C88.514931,1111.008911 81.226540,1111.008911 72.806274,1111.008911 
	C82.164948,1108.577637 82.164948,1108.577637 82.119522,1094.970215 
z"/>
<path fill="#0E0E0E" opacity="1.000000" stroke="none" 
	d="
M182.293793,1103.710205 
	C172.936050,1093.647339 170.398407,1078.685669 175.823303,1066.781860 
	C181.074905,1055.258301 192.102371,1048.551025 205.097839,1048.976440 
	C221.297714,1049.506714 233.812637,1064.276489 232.901749,1082.317383 
	C232.261215,1095.003540 226.218338,1104.697510 214.396606,1109.663696 
	C202.847137,1114.515747 191.955093,1112.604736 182.293793,1103.710205 
M193.487366,1054.739746 
	C191.240067,1057.543945 188.276840,1060.032593 186.876648,1063.210205 
	C182.257370,1073.692749 182.557755,1084.598999 186.008957,1095.338135 
	C188.972412,1104.559692 195.237961,1109.203369 203.393005,1108.978271 
	C211.882904,1108.744019 219.205582,1103.172729 220.791122,1093.973511 
	C222.071747,1086.543213 222.671906,1078.645264 221.615417,1071.234009 
	C219.271011,1054.787964 207.565582,1048.024170 193.487366,1054.739746 
z"/>
<path fill="#0E0E0E" opacity="1.000000" stroke="none" 
	d="
M1536.120728,1110.242188 
	C1518.510254,1115.080322 1503.543213,1107.978149 1498.080444,1092.530273 
	C1492.021118,1075.395508 1499.065186,1057.722046 1515.025635,1051.202271 
	C1525.077393,1047.096313 1534.938599,1048.011597 1543.750732,1054.839966 
	C1553.763672,1062.598877 1557.350464,1073.067139 1555.615479,1085.337036 
	C1553.953125,1097.093628 1547.632324,1105.519531 1536.120728,1110.242188 
M1511.950928,1101.419312 
	C1517.692139,1111.864380 1536.579468,1112.843872 1542.703857,1097.409790 
	C1547.325073,1085.763794 1546.800415,1073.535156 1541.716553,1061.914429 
	C1538.774780,1055.189819 1533.094116,1052.038574 1525.788818,1052.042358 
	C1518.602295,1052.046021 1513.075195,1055.352295 1510.358765,1061.885376 
	C1504.939331,1074.919678 1504.821899,1088.021729 1511.950928,1101.419312 
z"/>
<path fill="#131313" opacity="1.000000" stroke="none" 
	d="
M1159.373047,1063.074097 
	C1159.368530,1061.419678 1159.400269,1060.251953 1159.356323,1059.087280 
	C1159.115723,1052.698730 1158.097778,1051.608154 1151.574585,1050.325562 
	C1158.244141,1050.325562 1164.913696,1050.325562 1171.063477,1050.325562 
	C1169.272339,1051.201172 1166.244629,1051.746460 1165.023682,1053.529175 
	C1163.684570,1055.484497 1163.682251,1058.578979 1163.666016,1061.180542 
	C1163.561646,1077.973999 1163.612671,1094.768555 1163.612671,1111.562744 
	C1163.188232,1111.870239 1162.763794,1112.177856 1162.339233,1112.485474 
	C1149.115967,1096.685303 1135.892700,1080.885010 1122.025513,1064.315308 
	C1122.025513,1078.457275 1121.891479,1091.542603 1122.095459,1104.622803 
	C1122.170654,1109.449707 1126.109253,1110.039062 1129.909180,1110.701172 
	C1123.083374,1110.701172 1116.257446,1110.701172 1109.274292,1110.701172 
	C1117.301758,1108.675903 1117.690796,1108.382690 1117.802002,1099.599365 
	C1117.960205,1087.105713 1117.776245,1074.608154 1117.886597,1062.113525 
	C1117.929321,1057.276855 1114.787476,1055.031860 1111.171509,1053.159546 
	C1109.524414,1052.306641 1107.611938,1051.966064 1105.468262,1051.280884 
	C1112.619995,1048.058350 1121.153442,1049.750366 1125.517578,1054.988525 
	C1136.446045,1068.106323 1147.351440,1081.243164 1159.374390,1094.168213 
	C1159.374390,1083.966187 1159.374390,1073.764282 1159.373047,1063.074097 
z"/>
<path fill="#060606" opacity="1.000000" stroke="none" 
	d="
M473.176941,1060.864258 
	C472.120300,1054.825806 468.426147,1052.900269 463.083344,1052.989868 
	C457.267487,1053.087402 451.448761,1053.011963 445.424072,1053.011963 
	C445.424072,1061.433594 445.424072,1069.536377 445.424072,1077.984985 
	C450.470581,1077.984985 455.456665,1078.100220 460.434723,1077.949463 
	C464.594543,1077.823486 467.248413,1075.715576 467.891174,1071.408081 
	C468.015228,1070.576904 468.377899,1069.781372 469.507721,1069.098999 
	C469.507721,1075.985474 469.507721,1082.872070 469.507721,1089.797729 
	C469.092468,1089.755615 468.531555,1089.785522 468.506500,1089.683716 
	C466.503296,1081.545898 465.305023,1080.984619 455.710144,1081.008301 
	C452.390778,1081.016602 449.071381,1081.009644 445.282257,1081.009644 
	C445.282257,1088.881836 445.074677,1096.491333 445.472656,1104.068970 
	C445.544708,1105.441040 448.001770,1107.650146 449.527222,1107.805298 
	C454.310486,1108.291382 459.179108,1108.111084 464.006409,1107.946777 
	C470.071472,1107.740356 473.458191,1103.733398 476.190582,1098.904541 
	C477.014160,1097.449097 477.995575,1096.083008 478.904663,1094.676025 
	C479.288788,1094.872314 479.672943,1095.068481 480.057068,1095.264771 
	C478.396606,1100.384766 476.736176,1105.504883 475.020538,1110.795166 
	C459.394653,1110.795166 443.953064,1110.795166 428.918549,1110.795166 
	C430.892487,1109.749146 434.073181,1109.071899 435.285126,1107.151855 
	C436.632904,1105.016846 436.450439,1101.751953 436.476746,1098.974609 
	C436.595123,1086.477417 436.567902,1073.978394 436.560059,1061.480103 
	C436.554474,1052.562378 436.406708,1052.390625 428.050537,1050.175903 
	C443.862915,1050.175903 459.256989,1050.175903 474.901611,1050.175903 
	C475.116302,1054.445312 475.321228,1058.521240 475.581940,1063.705811 
	C474.349335,1062.392212 473.809326,1061.816650 473.176941,1060.864258 
z"/>
<path fill="#060606" opacity="1.000000" stroke="none" 
	d="
M2344.245117,1100.904785 
	C2343.690918,1106.284424 2345.630615,1108.678711 2350.764648,1108.006348 
	C2351.910400,1107.856445 2353.111084,1107.854126 2354.255859,1108.008911 
	C2364.866943,1109.444458 2372.903076,1106.233887 2376.954590,1095.633423 
	C2377.078125,1095.309692 2377.709229,1095.179810 2379.319336,1094.280518 
	C2377.340576,1100.469727 2375.693848,1105.619629 2374.018311,1110.860229 
	C2358.360596,1110.860229 2342.914551,1110.860229 2327.471191,1110.866211 
	C2329.818115,1109.749268 2333.064697,1109.209839 2334.269287,1107.348755 
	C2335.634277,1105.239624 2335.431885,1101.948486 2335.455322,1099.167358 
	C2335.565186,1086.180542 2335.562988,1073.192139 2335.509766,1060.204834 
	C2335.478271,1052.454224 2334.843018,1051.772461 2327.555420,1049.988525 
	C2335.208984,1049.988525 2342.862793,1049.988525 2350.516602,1049.988525 
	C2358.157959,1049.988525 2365.799561,1049.988525 2373.855225,1049.988525 
	C2374.073975,1054.365723 2374.282227,1058.531860 2374.490479,1062.697998 
	C2374.125244,1062.824829 2373.760010,1062.951660 2373.394775,1063.078491 
	C2372.938965,1062.070557 2372.294922,1061.104492 2372.059814,1060.047607 
	C2370.934326,1054.988892 2367.655762,1052.955078 2362.693115,1052.998657 
	C2356.710693,1053.051270 2350.727539,1053.011108 2344.448975,1053.011108 
	C2344.448975,1061.354370 2344.448975,1069.428833 2344.448975,1077.981079 
	C2349.571533,1077.981079 2354.690186,1078.050171 2359.806152,1077.962646 
	C2365.520996,1077.864990 2366.539307,1073.295776 2368.464355,1069.150513 
	C2368.464355,1076.076172 2368.464355,1083.001953 2368.464355,1091.024414 
	C2363.734131,1081.008911 2363.734131,1081.008911 2352.819336,1081.008911 
	C2350.165283,1081.008911 2347.511230,1081.008911 2344.243164,1081.008911 
	C2344.243164,1087.622437 2344.243164,1094.020386 2344.245117,1100.904785 
z"/>
<path fill="#060606" opacity="1.000000" stroke="none" 
	d="
M1017.295044,1081.084595 
	C1011.725891,1081.030029 1006.592590,1081.030029 1001.255066,1081.030029 
	C1001.255066,1088.588379 1001.293823,1095.744995 1001.238586,1102.901001 
	C1001.211487,1106.406860 1002.694824,1108.194458 1006.330261,1108.012085 
	C1008.158081,1107.920410 1010.022583,1107.780396 1011.821716,1108.023315 
	C1022.128601,1109.416748 1029.762817,1106.064209 1033.809326,1096.018311 
	C1034.004883,1095.532715 1034.664429,1095.234009 1036.024414,1095.304199 
	C1034.352539,1100.488647 1032.680664,1105.673096 1030.999878,1110.885254 
	C1015.322083,1110.885254 999.911255,1110.885254 983.978577,1110.885254 
	C992.345825,1108.494751 992.484131,1108.360596 992.519897,1099.390747 
	C992.572388,1086.231079 992.627319,1073.070679 992.540222,1059.911621 
	C992.491150,1052.499390 991.624634,1051.637695 984.622986,1049.989868 
	C992.195251,1049.989868 999.767456,1049.989746 1007.339661,1049.989746 
	C1015.134949,1049.989746 1022.930298,1049.989868 1031.119873,1049.989868 
	C1031.119873,1054.552734 1031.119873,1058.701172 1031.119873,1063.303101 
	C1030.327515,1062.689575 1029.792847,1062.489014 1029.642944,1062.128540 
	C1025.859497,1053.022217 1025.866577,1053.018311 1015.809937,1053.013428 
	C1010.997009,1053.011230 1006.184082,1053.013184 1001.280640,1053.013184 
	C1001.280640,1061.366699 1001.280640,1069.350708 1001.280640,1077.917236 
	C1006.663696,1077.917236 1012.092834,1078.153198 1017.491699,1077.849731 
	C1022.699890,1077.557007 1023.779846,1073.343994 1025.310303,1069.156982 
	C1025.310303,1076.041992 1025.310303,1082.926880 1025.310303,1089.811890 
	C1023.310974,1086.480103 1023.087280,1081.567383 1017.295044,1081.084595 
z"/>
<path fill="#060606" opacity="1.000000" stroke="none" 
	d="
M1905.503540,1101.778320 
	C1905.512817,1087.477539 1905.576416,1073.651367 1905.494263,1059.825928 
	C1905.450562,1052.458496 1904.628418,1051.634521 1897.595093,1049.988281 
	C1905.204468,1049.988281 1912.813843,1049.988159 1920.423218,1049.988159 
	C1928.070679,1049.988159 1935.718262,1049.988281 1943.954346,1049.988281 
	C1943.954346,1054.401855 1943.954346,1058.652710 1943.954346,1062.999634 
	C1943.517456,1062.875244 1943.241211,1062.853149 1943.229492,1062.785278 
	C1941.497681,1052.748047 1934.214722,1052.450562 1926.303467,1052.969360 
	C1922.498047,1053.218872 1918.662720,1053.012329 1914.523193,1053.012329 
	C1914.523193,1061.296265 1914.523193,1069.352905 1914.523193,1077.928589 
	C1919.691284,1077.928589 1924.967041,1078.196045 1930.201904,1077.847900 
	C1934.779175,1077.543579 1935.209351,1076.711792 1938.376465,1069.078857 
	C1938.376465,1076.002441 1938.376465,1082.926025 1938.376465,1089.914673 
	C1937.929077,1089.812988 1937.398682,1089.815430 1937.350220,1089.663818 
	C1934.606689,1081.073364 1934.518188,1081.006470 1925.114136,1081.008667 
	C1921.630249,1081.009521 1918.146484,1081.008911 1914.282959,1081.008911 
	C1914.282959,1088.758057 1914.263062,1096.204102 1914.293213,1103.649780 
	C1914.304443,1106.435547 1915.636963,1108.014160 1918.571899,1107.978882 
	C1920.237305,1107.958862 1921.924683,1107.812500 1923.565552,1108.016479 
	C1934.191650,1109.337158 1942.727417,1106.762939 1946.911499,1095.799927 
	C1947.013916,1095.531616 1947.313110,1095.268555 1947.584229,1095.153809 
	C1947.865356,1095.034790 1948.224487,1095.099731 1949.123413,1095.057007 
	C1947.401855,1100.374146 1945.742920,1105.497681 1944.024536,1110.805054 
	C1928.423340,1110.805054 1912.991821,1110.805054 1897.560303,1110.805054 
	C1902.387207,1110.011841 1905.991577,1108.018311 1905.503540,1101.778320 
z"/>
<path fill="#0B0B0B" opacity="1.000000" stroke="none" 
	d="
M2136.055664,1111.031250 
	C2132.414795,1111.021484 2129.261230,1111.021484 2125.974365,1111.021484 
	C2128.475342,1109.748413 2131.550537,1109.123047 2132.850830,1107.259277 
	C2134.181641,1105.351807 2134.058838,1102.233154 2134.077881,1099.640991 
	C2134.172852,1086.656250 2134.122070,1073.670532 2134.089111,1060.685059 
	C2134.069092,1052.703979 2133.476807,1051.974243 2128.518555,1050.909058 
	C2136.654297,1050.909058 2147.251953,1050.126465 2157.675781,1051.138062 
	C2167.327148,1052.074707 2172.648438,1059.743530 2171.970459,1068.932983 
	C2171.337402,1077.510132 2164.563232,1083.659302 2155.026855,1083.955688 
	C2151.241211,1084.073486 2147.435791,1083.548584 2143.074463,1083.281738 
	C2143.074463,1090.363892 2142.809570,1097.610840 2143.170166,1104.826538 
	C2143.401367,1109.450806 2147.315918,1110.151367 2151.079346,1111.041138 
	C2146.233643,1111.041138 2141.388184,1111.041138 2136.055664,1111.031250 
M2159.465332,1075.754028 
	C2162.799072,1068.926880 2162.232422,1061.263794 2157.775146,1056.717529 
	C2153.585205,1052.444336 2148.572754,1052.131836 2143.333008,1054.116699 
	C2143.333008,1062.921875 2143.333008,1071.471924 2143.333008,1079.982788 
	C2149.494141,1081.639282 2154.891602,1081.692871 2159.465332,1075.754028 
z"/>
<path fill="#0E0E0E" opacity="1.000000" stroke="none" 
	d="
M2456.560059,1111.925781 
	C2451.433838,1111.227783 2446.655273,1110.760498 2442.066650,1109.564209 
	C2438.405762,1108.609741 2434.881348,1106.375854 2432.612061,1111.852905 
	C2432.612061,1104.961060 2432.612061,1098.069336 2432.612061,1091.177490 
	C2433.022217,1091.075317 2433.432617,1090.973145 2433.842773,1090.870972 
	C2434.284912,1092.597412 2434.715820,1094.326782 2435.171143,1096.049927 
	C2437.613281,1105.292603 2446.959473,1110.885742 2455.872559,1108.531128 
	C2460.108643,1107.412354 2463.033691,1104.940186 2463.919922,1100.625977 
	C2464.777832,1096.451294 2463.015625,1092.978516 2459.663086,1090.659668 
	C2455.577637,1087.833984 2451.172119,1085.474487 2446.936035,1082.862793 
	C2444.253174,1081.208740 2441.524658,1079.601440 2438.995850,1077.730957 
	C2432.643066,1073.032715 2430.332031,1066.875000 2432.278564,1060.379517 
	C2434.129150,1054.203613 2440.566895,1049.210571 2447.782715,1049.088501 
	C2451.175293,1049.031128 2454.752930,1049.709717 2457.956055,1050.862427 
	C2463.964600,1053.024780 2463.876709,1053.269043 2467.803711,1048.891602 
	C2467.803711,1056.080322 2467.803711,1062.906860 2467.803711,1069.733398 
	C2467.494629,1069.825195 2467.185547,1069.917114 2466.876465,1070.009033 
	C2466.546387,1068.824463 2466.151123,1067.653687 2465.896729,1066.453125 
	C2464.252930,1058.684326 2459.695068,1053.769043 2451.836426,1052.157593 
	C2446.845459,1051.134033 2441.789551,1053.569946 2439.774902,1057.984375 
	C2437.539307,1062.881592 2439.800781,1066.504395 2443.714111,1069.048584 
	C2449.688721,1072.932861 2455.889404,1076.476074 2462.061523,1080.047241 
	C2469.167236,1084.158569 2473.610840,1089.858032 2471.919678,1098.395996 
	C2470.349365,1106.324219 2464.522705,1110.191895 2456.560059,1111.925781 
z"/>
<path fill="#0E0E0E" opacity="1.000000" stroke="none" 
	d="
M2633.960938,1094.900391 
	C2637.477783,1106.067017 2646.522705,1111.349121 2656.017822,1108.136353 
	C2663.288086,1105.676514 2665.599121,1097.768188 2660.262207,1092.292358 
	C2657.662109,1089.624512 2654.135986,1087.828613 2650.934082,1085.786377 
	C2647.156250,1083.376831 2643.177002,1081.275391 2639.460693,1078.778809 
	C2631.329102,1073.316284 2628.644775,1065.994873 2631.927979,1058.844116 
	C2635.448486,1051.176270 2644.683105,1047.157593 2653.411133,1049.572754 
	C2655.160645,1050.056763 2656.950928,1050.628906 2658.505859,1051.532959 
	C2662.017334,1053.574707 2664.776123,1053.878174 2666.583496,1049.107666 
	C2666.583496,1055.980713 2666.583496,1062.853760 2666.583496,1069.726929 
	C2666.329590,1069.815186 2666.075439,1069.903442 2665.821533,1069.991821 
	C2665.503662,1068.788818 2665.137695,1067.596191 2664.875488,1066.381104 
	C2663.176025,1058.503418 2657.994141,1053.253052 2650.758545,1052.111694 
	C2645.593994,1051.297241 2640.677490,1053.715454 2638.732178,1058.027100 
	C2636.855713,1062.186646 2638.068359,1065.973999 2643.173828,1069.344482 
	C2648.979004,1073.176758 2655.157715,1076.437012 2661.078369,1080.100220 
	C2670.132324,1085.701660 2673.300293,1092.979126 2670.292480,1100.828003 
	C2667.221924,1108.840088 2657.410156,1113.695068 2647.952637,1111.714355 
	C2645.377441,1111.175049 2642.861084,1110.249512 2640.402832,1109.284546 
	C2636.898193,1107.909058 2633.659424,1106.932861 2631.706787,1111.894653 
	C2631.706787,1105.024170 2631.706787,1098.153809 2631.706787,1091.283447 
	C2631.975342,1091.162231 2632.243896,1091.041138 2632.512451,1090.919922 
	C2632.972656,1092.115112 2633.432861,1093.310303 2633.960938,1094.900391 
z"/>
<path fill="#0D0D0D" opacity="1.000000" stroke="none" 
	d="
M2563.412109,1098.833130 
	C2562.021484,1092.605103 2558.905029,1089.638306 2552.521973,1090.959351 
	C2550.447021,1091.388672 2548.205566,1090.960571 2546.044678,1091.041748 
	C2542.772217,1091.164551 2538.070801,1090.122070 2536.544922,1091.846802 
	C2533.743652,1095.013794 2532.435791,1099.727661 2531.203369,1103.998169 
	C2529.729492,1109.106079 2534.370117,1109.120728 2537.424316,1111.000732 
	C2534.444580,1111.000732 2531.464600,1111.000732 2528.484863,1111.000732 
	C2525.501709,1111.000732 2522.518311,1111.000732 2517.928223,1111.000732 
	C2527.954590,1107.062866 2528.615479,1098.239380 2531.839111,1091.224609 
	C2537.718750,1078.428711 2542.940918,1065.331055 2548.480957,1052.377930 
	C2549.027344,1051.100342 2549.878906,1049.953003 2551.244141,1047.629517 
	C2552.470703,1050.203979 2553.267334,1051.708130 2553.919678,1053.272461 
	C2560.494629,1069.037720 2567.105713,1084.788452 2573.565186,1100.601074 
	C2575.405762,1105.107300 2577.493408,1109.169434 2582.596680,1110.841553 
	C2575.064941,1110.841553 2567.533447,1110.841553 2559.833740,1110.841553 
	C2566.212402,1107.695068 2566.338623,1107.290527 2563.412109,1098.833130 
M2544.675049,1072.230347 
	C2542.427979,1077.311890 2540.180908,1082.393311 2537.845947,1087.673462 
	C2544.971436,1087.673462 2551.604492,1087.673462 2558.734863,1087.673462 
	C2555.858154,1080.857300 2553.190674,1074.497803 2550.483398,1068.155273 
	C2549.927490,1066.852783 2549.223145,1065.613525 2548.422852,1064.016724 
	C2547.142822,1066.747070 2546.026123,1069.129272 2544.675049,1072.230347 
z"/>
<path fill="#0D0D0D" opacity="1.000000" stroke="none" 
	d="
M908.296997,1069.746094 
	C906.932190,1067.836304 905.952148,1065.814575 904.990173,1063.784302 
	C901.370483,1056.145142 895.417603,1051.975342 886.888428,1052.070190 
	C878.438965,1052.164062 872.179016,1056.082275 868.920837,1063.939941 
	C864.898621,1073.640137 864.282959,1083.777588 867.665466,1093.687988 
	C872.818237,1108.785278 892.040405,1113.000244 903.504395,1101.840332 
	C905.416992,1099.978394 907.125549,1097.906738 909.199768,1096.217896 
	C907.143066,1104.748413 897.577698,1111.479126 887.515259,1112.027344 
	C873.954407,1112.766113 863.453552,1106.870483 858.194275,1095.564941 
	C852.615112,1083.571655 854.914978,1068.179199 863.698853,1058.723389 
	C872.315186,1049.447998 884.927063,1046.542603 897.027954,1051.045166 
	C902.721069,1053.163574 902.721069,1053.163574 907.492798,1048.483154 
	C907.913696,1055.916870 908.301880,1062.773560 908.296997,1069.746094 
z"/>
<path fill="#060606" opacity="1.000000" stroke="none" 
	d="
M604.303955,1094.288818 
	C603.255432,1099.796265 601.829285,1105.335083 600.399292,1110.889038 
	C584.398804,1110.889038 568.954712,1110.889038 553.781799,1110.889038 
	C555.969238,1109.678589 559.217896,1108.911377 560.486450,1106.896973 
	C561.829224,1104.765137 561.513794,1101.448120 561.530701,1098.646362 
	C561.606995,1085.997192 561.581299,1073.347046 561.518311,1060.697754 
	C561.478577,1052.713257 560.827393,1051.953247 552.430359,1050.194580 
	C562.202209,1050.194580 570.884644,1050.194580 578.900940,1050.194580 
	C576.676086,1051.312988 572.930847,1052.036865 571.436035,1054.268433 
	C569.897949,1056.564575 570.315186,1060.329224 570.292969,1063.454224 
	C570.202881,1076.102783 570.379395,1088.753418 570.230896,1101.400757 
	C570.172729,1106.353638 572.216614,1108.378296 577.111389,1108.030029 
	C580.257935,1107.806152 583.433594,1107.960327 586.595703,1107.993774 
	C593.591064,1108.067627 598.754089,1105.252563 601.625610,1098.663330 
	C602.278137,1097.165771 603.153503,1095.765381 604.303955,1094.288818 
z"/>
<path fill="#0E0E0E" opacity="1.000000" stroke="none" 
	d="
M347.922424,1049.967773 
	C350.895203,1049.961548 353.380280,1049.961548 356.222687,1049.961548 
	C356.452454,1054.592041 356.668854,1058.953125 356.888184,1063.374023 
	C354.044373,1059.958618 352.058411,1055.733398 348.790527,1054.143799 
	C345.212158,1052.403198 340.449860,1053.096802 335.560303,1052.673950 
	C335.560303,1062.943604 335.549408,1072.538086 335.564240,1082.132690 
	C335.573761,1088.296631 335.512482,1094.463501 335.678711,1100.623779 
	C335.892670,1108.555054 336.350342,1109.027954 344.545105,1110.813232 
	C335.234253,1110.813232 326.997681,1110.813232 317.891449,1110.813232 
	C326.008820,1108.918335 326.811554,1108.078003 326.862976,1100.255127 
	C326.964752,1084.772827 326.893036,1069.289185 326.893036,1053.826172 
	C313.547302,1052.147095 310.895630,1051.899048 306.351807,1064.477051 
	C306.351807,1058.978394 306.351807,1054.722534 306.351807,1049.973877 
	C320.217316,1049.973877 333.826050,1049.973877 347.922424,1049.967773 
z"/>
<path fill="#0E0E0E" opacity="1.000000" stroke="none" 
	d="
M1258.084106,1053.020142 
	C1248.644775,1053.047729 1247.697388,1053.754517 1243.403076,1064.523071 
	C1243.403076,1059.018921 1243.403076,1054.791992 1243.403076,1050.256348 
	C1259.949219,1050.256348 1276.354370,1050.256348 1293.191895,1050.256348 
	C1293.451294,1054.530029 1293.716064,1058.890625 1293.984497,1063.311646 
	C1291.012329,1059.908691 1288.868286,1055.689819 1285.478638,1054.057251 
	C1281.920532,1052.343750 1277.168457,1053.109009 1272.741699,1052.776245 
	C1272.741699,1070.316772 1272.743896,1087.100586 1272.740356,1103.884399 
	C1272.739136,1109.159302 1276.451904,1110.141846 1280.561890,1110.859985 
	C1272.333252,1110.859985 1264.104492,1110.859985 1256.575073,1110.859985 
	C1258.391235,1109.648560 1261.567139,1108.601562 1262.749756,1106.456055 
	C1264.072144,1104.057007 1263.829834,1100.663086 1263.847778,1097.699707 
	C1263.937378,1082.932983 1263.888672,1068.165649 1263.888672,1053.025024 
	C1261.794800,1053.025024 1260.168701,1053.025024 1258.084106,1053.020142 
z"/>
<path fill="#131313" opacity="1.000000" stroke="none" 
	d="
M1680.394775,1096.968750 
	C1680.390381,1090.646240 1680.343506,1084.818726 1680.395630,1078.992065 
	C1680.426636,1075.526978 1679.669434,1072.775879 1675.527710,1071.672363 
	C1683.462769,1072.020142 1691.468384,1071.829346 1699.314087,1072.858398 
	C1708.206177,1074.024902 1713.276489,1080.780884 1713.772949,1090.385254 
	C1714.251831,1099.651001 1709.186523,1108.187012 1700.675415,1109.736450 
	C1692.421631,1111.238892 1683.849487,1110.993286 1675.196655,1111.093140 
	C1683.562866,1108.821411 1679.378174,1102.168335 1680.394775,1096.968750 
M1693.982788,1108.908813 
	C1705.346924,1106.865234 1709.066406,1096.105225 1706.321045,1085.143433 
	C1704.084961,1076.214111 1695.644775,1072.197510 1686.157227,1075.191284 
	C1686.157227,1086.069946 1686.157227,1097.007935 1686.157227,1108.273438 
	C1688.581421,1108.514404 1690.863647,1108.741089 1693.982788,1108.908813 
z"/>
<path fill="#0D0D0D" opacity="1.000000" stroke="none" 
	d="
M1770.201660,1108.870850 
	C1773.394897,1106.395264 1776.171143,1103.984863 1779.161987,1101.388062 
	C1778.184814,1104.436523 1777.207031,1107.486450 1776.157837,1110.759399 
	C1766.267700,1110.759399 1756.510742,1110.759399 1746.753662,1110.759399 
	C1751.314941,1109.923218 1751.831177,1106.599487 1751.777710,1102.704468 
	C1751.672485,1095.045776 1751.830811,1087.383911 1751.755737,1079.724487 
	C1751.702026,1074.253418 1751.415771,1073.975586 1746.003174,1072.163330 
	C1756.308105,1072.163330 1766.003906,1072.163330 1775.915039,1072.163330 
	C1776.038452,1074.731689 1776.155273,1077.163330 1776.271973,1079.594971 
	C1772.211060,1069.877441 1763.967285,1075.519775 1757.470459,1073.766479 
	C1757.470459,1079.387085 1757.470459,1084.475586 1757.467407,1089.565430 
	C1767.990234,1090.972778 1769.289429,1090.535034 1772.288452,1083.836182 
	C1772.288452,1088.942627 1772.288452,1093.189209 1772.288452,1097.435791 
	C1769.695679,1088.479858 1762.631470,1093.201904 1757.281250,1091.868286 
	C1757.281250,1096.591553 1757.396973,1100.753784 1757.242554,1104.906128 
	C1757.131348,1107.893799 1758.223999,1109.208252 1761.294556,1109.018799 
	C1764.115479,1108.844604 1766.953979,1108.952393 1770.201660,1108.870850 
z"/>
<path fill="#121212" opacity="1.000000" stroke="none" 
	d="
M754.815918,1074.663818 
	C750.479004,1080.959961 745.534180,1086.614990 742.680847,1093.179077 
	C740.860535,1097.366821 741.863220,1102.921509 742.232849,1107.815430 
	C742.317017,1108.930054 745.014099,1109.847534 746.458618,1110.822021 
	C741.427429,1110.822021 736.263428,1110.822021 731.099365,1110.822021 
	C735.516541,1110.148315 735.733521,1107.080566 736.060547,1103.517090 
	C736.608093,1097.550903 734.943665,1092.571411 731.377441,1087.849487 
	C727.471680,1082.677979 723.982849,1077.191650 720.631409,1072.307617 
	C724.253662,1072.307617 729.413940,1072.307617 735.953735,1072.307617 
	C729.358704,1073.434448 730.320862,1076.340576 732.565002,1079.709717 
	C735.119446,1083.544678 737.552734,1087.460205 740.249268,1091.669434 
	C742.987732,1087.325562 745.522949,1083.469238 747.885132,1079.509644 
	C750.148926,1075.714722 749.898804,1074.956909 745.805420,1072.201172 
	C750.321350,1072.201172 754.440674,1072.201172 759.184753,1072.201172 
	C757.498230,1073.110840 756.296082,1073.759399 754.815918,1074.663818 
z"/>
<path fill="#131313" opacity="1.000000" stroke="none" 
	d="
M1715.516113,229.573364 
	C1716.500244,229.963272 1717.248901,230.545013 1717.997559,231.126755 
	C1717.847900,231.403427 1717.698120,231.680115 1717.548462,231.956802 
	C1716.734497,231.564072 1715.920410,231.171356 1714.969238,230.476776 
	C1714.981567,230.038330 1715.130981,229.901764 1715.516113,229.573364 
z"/>
<path fill="#111111" opacity="1.000000" stroke="none" 
	d="
M2307.564697,515.576355 
	C2308.271973,515.839905 2308.730225,516.286743 2309.496582,516.734558 
	C2309.805176,516.735596 2309.889893,516.691528 2309.889893,516.691528 
	C2309.063965,516.750061 2308.238281,516.808533 2307.131348,516.516968 
	C2307.005371,516.031128 2307.160645,515.895386 2307.564697,515.576355 
z"/>
<path fill="#111111" opacity="1.000000" stroke="none" 
	d="
M401.317444,516.520813 
	C401.046570,516.830750 400.629578,516.901917 400.212585,516.973022 
	C400.233276,516.679260 400.253998,516.385498 400.552979,515.964600 
	C400.944611,515.985657 401.057953,516.133850 401.317444,516.520813 
z"/>
<path fill="#111111" opacity="1.000000" stroke="none" 
	d="
M2309.816895,516.697083 
	C2309.635010,517.014404 2309.441406,517.370239 2309.247803,517.726013 
	C2309.226318,517.411743 2309.204834,517.097473 2309.536621,516.737366 
	C2309.889893,516.691528 2309.805176,516.735596 2309.816895,516.697083 
z"/>
<path fill="#FEFEFE" opacity="1.000000" stroke="none" 
	d="
M1383.816040,828.999878 
	C1383.816040,815.046753 1383.816040,801.593628 1383.816040,787.579041 
	C1403.840576,788.025208 1423.510620,786.157166 1442.753418,791.366821 
	C1458.580444,795.651733 1466.657104,806.195923 1467.699463,824.514038 
	C1468.026245,830.256165 1467.638428,836.233948 1466.378906,841.834351 
	C1462.753296,857.956543 1450.807129,865.054504 1435.715942,866.644348 
	C1422.369507,868.050354 1408.832886,868.038147 1395.385132,867.945679 
	C1387.380859,867.890564 1384.052612,863.866272 1383.929443,855.987061 
	C1383.791382,847.159546 1383.845581,838.329102 1383.816040,828.999878 
z"/>
<path fill="#FDFDFD" opacity="1.000000" stroke="none" 
	d="
M1395.002441,775.581177 
	C1391.176270,775.581177 1387.850952,775.581177 1384.163330,775.581177 
	C1384.163330,751.169434 1384.163330,726.945862 1384.163330,702.845154 
	C1398.724854,702.845154 1413.458496,702.801758 1428.191406,702.864563 
	C1434.899414,702.893188 1441.069092,705.060669 1446.163940,709.273621 
	C1449.543091,712.067871 1453.028076,715.399658 1454.880249,719.252930 
	C1461.059570,732.107727 1461.118530,745.392944 1454.471802,758.104736 
	C1449.601685,767.418945 1440.457153,771.402832 1430.736816,772.779419 
	C1419.093628,774.428284 1407.256348,774.708252 1395.002441,775.581177 
z"/>
<path fill="#FDFDFD" opacity="1.000000" stroke="none" 
	d="
M1768.770752,768.949829 
	C1768.769653,746.551514 1768.769653,724.648804 1768.769653,702.298218 
	C1788.243408,702.535522 1807.171265,701.531189 1825.814819,705.939514 
	C1835.689697,708.274414 1841.624146,714.580933 1842.987793,724.315979 
	C1844.058105,731.955811 1844.607422,739.927307 1843.659058,747.535950 
	C1841.821533,762.276367 1832.030884,770.747070 1817.974365,772.794739 
	C1801.953125,775.128540 1785.681763,775.745911 1768.771851,777.172302 
	C1768.771851,773.634033 1768.771851,771.539673 1768.770752,768.949829 
z"/>
<path fill="#FCFCFC" opacity="1.000000" stroke="none" 
	d="
M2506.410156,764.604858 
	C2512.362549,778.519592 2518.136719,792.097900 2524.081299,806.076294 
	C2502.960693,806.076294 2482.282227,806.076294 2460.947754,806.076294 
	C2471.223145,781.104065 2481.340332,756.516479 2491.906006,730.838989 
	C2496.990723,742.704163 2501.611328,753.486328 2506.410156,764.604858 
z"/>
<path fill="#FBFBFB" opacity="1.000000" stroke="none" 
	d="
M1401.982422,1064.286377 
	C1401.536133,1074.997314 1395.286865,1079.516846 1382.270508,1078.760986 
	C1382.270508,1070.712036 1382.270508,1062.642090 1382.270508,1054.552612 
	C1392.632690,1050.767456 1399.419800,1053.967285 1401.982422,1064.286377 
z"/>
<path fill="#FBFBFB" opacity="1.000000" stroke="none" 
	d="
M2237.012695,1062.068848 
	C2237.012695,1059.271240 2237.012695,1056.961426 2237.012695,1054.711914 
	C2244.144287,1051.903809 2249.988281,1052.748291 2253.915771,1057.073242 
	C2257.186035,1060.674316 2258.137451,1066.484131 2255.854492,1070.972046 
	C2251.974854,1078.598389 2244.867432,1079.006226 2237.012695,1078.975098 
	C2237.012695,1073.389648 2237.012695,1067.973267 2237.012695,1062.068848 
z"/>
<path fill="#FCFCFC" opacity="1.000000" stroke="none" 
	d="
M193.788239,1054.504883 
	C207.565582,1048.024170 219.271011,1054.787964 221.615417,1071.234009 
	C222.671906,1078.645264 222.071747,1086.543213 220.791122,1093.973511 
	C219.205582,1103.172729 211.882904,1108.744019 203.393005,1108.978271 
	C195.237961,1109.203369 188.972412,1104.559692 186.008957,1095.338135 
	C182.557755,1084.598999 182.257370,1073.692749 186.876648,1063.210205 
	C188.276840,1060.032593 191.240067,1057.543945 193.788239,1054.504883 
z"/>
<path fill="#FCFCFC" opacity="1.000000" stroke="none" 
	d="
M1511.746582,1101.109619 
	C1504.821899,1088.021729 1504.939331,1074.919678 1510.358765,1061.885376 
	C1513.075195,1055.352295 1518.602295,1052.046021 1525.788818,1052.042358 
	C1533.094116,1052.038574 1538.774780,1055.189819 1541.716553,1061.914429 
	C1546.800415,1073.535156 1547.325073,1085.763794 1542.703857,1097.409790 
	C1536.579468,1112.843872 1517.692139,1111.864380 1511.746582,1101.109619 
z"/>
<path fill="#FBFBFB" opacity="1.000000" stroke="none" 
	d="
M2159.233887,1076.056641 
	C2154.891602,1081.692871 2149.494141,1081.639282 2143.333008,1079.982788 
	C2143.333008,1071.471924 2143.333008,1062.921875 2143.333008,1054.116699 
	C2148.572754,1052.131836 2153.585205,1052.444336 2157.775146,1056.717529 
	C2162.232422,1061.263794 2162.799072,1068.926880 2159.233887,1076.056641 
z"/>
<path fill="#FBFBFB" opacity="1.000000" stroke="none" 
	d="
M2544.792236,1071.870850 
	C2546.026123,1069.129272 2547.142822,1066.747070 2548.422852,1064.016724 
	C2549.223145,1065.613525 2549.927490,1066.852783 2550.483398,1068.155273 
	C2553.190674,1074.497803 2555.858154,1080.857300 2558.734863,1087.673462 
	C2551.604492,1087.673462 2544.971436,1087.673462 2537.845947,1087.673462 
	C2540.180908,1082.393311 2542.427979,1077.311890 2544.792236,1071.870850 
z"/>
<path fill="#FBFBFB" opacity="1.000000" stroke="none" 
	d="
M1693.564209,1108.938354 
	C1690.863647,1108.741089 1688.581421,1108.514404 1686.157227,1108.273438 
	C1686.157227,1097.007935 1686.157227,1086.069946 1686.157227,1075.191284 
	C1695.644775,1072.197510 1704.084961,1076.214111 1706.321045,1085.143433 
	C1709.066406,1096.105225 1705.346924,1106.865234 1693.564209,1108.938354 
z"/>
</svg>